<svg width="40" height="35" viewBox="0 0 40 35" fill="none" xmlns="http://www.w3.org/2000/svg">
<path d="M37.953 4.09042H8.19906L8.00108 3.49623C7.34098 1.40508 5.39164 0 3.18765 0H0V2.04521H3.18765C4.50984 2.04521 5.67925 2.88806 6.09868 4.14335L12.4141 23.0915C13.1111 25.1826 15.0604 26.5877 17.2644 26.5877H34.7685V24.5425H17.2644C15.9422 24.5425 14.7728 23.6997 14.3165 22.4444L13.6189 20.3516L13.6886 20.4521H33.3512C34.2038 20.4521 34.9669 19.9232 35.2662 19.125L39.868 6.85377C40.3693 5.51672 39.3809 4.09042 37.953 4.09042ZM33.3512 18.4069H12.9708L8.88075 6.13563H37.953L33.3512 18.4069ZM18.4069 31.7007C18.4069 33.3951 17.0334 34.7686 15.3391 34.7686C13.6448 34.7686 12.2713 33.3951 12.2713 31.7007C12.2713 30.0064 13.6448 28.6329 15.3391 28.6329C17.0334 28.6329 18.4069 30.0064 18.4069 31.7007ZM36.8138 31.7007C36.8138 33.395 35.4402 34.7686 33.7459 34.7686C32.0516 34.7686 30.6781 33.395 30.6781 31.7007C30.6781 30.0064 32.0516 28.6329 33.7459 28.6329C35.4402 28.6329 36.8138 30.0064 36.8138 31.7007Z" fill="#222222"/>
</svg>
