<svg width="168" height="32" viewBox="0 0 168 32" fill="none" xmlns="http://www.w3.org/2000/svg">
<path fill-rule="evenodd" clip-rule="evenodd" d="M132.531 3.39394L2.84766 3.39518V28.5909L132.531 28.5896V3.39394ZM125.303 7.92269H113.759C112.474 7.92269 110.632 9.35095 110.632 11.1266V21.6985C110.632 22.7582 111.504 23.5464 112.377 23.5464C113.298 23.5464 114.152 22.7831 114.151 21.65L114.142 11.2761H124.91C125.477 11.2761 126.293 11.9173 126.293 12.8537C126.293 13.8661 125.444 14.3816 124.914 14.404H115.166C115.166 16.6952 116.912 17.7313 118.197 17.7313H122.708C123.398 18.622 123.966 19.3597 124.444 19.9805L124.446 19.9821L124.447 19.9842C125.7 21.6101 126.334 22.4329 126.904 23.1031C127.467 23.7668 128.586 23.6896 129.256 23.0782C129.959 22.4382 129.94 21.376 129.619 20.934C127.14 17.5146 127.025 17.3365 127.025 17.3365C128.625 16.5483 129.765 14.9233 129.765 13.0729V12.8513C129.765 9.37586 127.052 7.92269 125.303 7.92269ZM95.0347 7.92519C96.1507 7.92519 96.8428 8.34358 97.8864 9.69838L105.646 20.9863C106.059 21.5777 106.019 22.5191 105.307 23.1305C104.676 23.6722 103.56 23.722 102.955 22.9089L101.098 20.2964H88.8758L87.0212 22.9574C86.3671 23.7469 85.566 23.7469 84.8396 23.2538C84.0838 22.742 83.8927 21.7508 84.3545 21.0597L92.1868 9.69838C93.1814 8.29378 93.9678 7.92519 95.0347 7.92519ZM95.499 12.1029C95.2944 11.7978 95.2185 11.7692 95.0005 11.7692C94.7567 11.7692 94.6611 11.8924 94.4958 12.1178C94.3768 12.2793 93.6927 13.295 92.9678 14.3714L92.9672 14.3722L92.9672 14.3722L92.9654 14.3749C92.0646 15.7124 91.1016 17.1423 91.0819 17.1423H98.9398C98.9251 17.1423 95.9326 12.7554 95.499 12.1029ZM42.1055 7.94394H53.2842C56.0575 7.94394 56.3123 11.189 56.3123 11.189H42.5587C41.8777 11.189 41.2456 11.712 41.2456 12.621C41.2456 13.6582 42.021 14.1514 42.5098 14.1514H52.2296C54.1552 14.1514 56.8953 15.7813 56.8953 18.5968C56.8953 22.2515 53.7117 23.5502 52.6032 23.5502H41.2309C37.8513 23.5502 38.0387 20.2753 38.0387 20.2753H52.1328C52.6963 20.2753 53.5268 19.7075 53.5268 18.8583C53.5268 18.0476 52.7979 17.4263 52.2626 17.4263H42.7376C40.0354 17.4263 37.942 15.3866 37.942 12.621C37.942 9.50919 40.5695 7.94394 42.1055 7.94394ZM66.1815 7.94887H77.7253C79.4745 7.94887 82.1877 9.40328 82.1877 12.8774V13.0991C82.1877 14.9507 81.0485 16.5745 79.4475 17.3627C79.4475 17.3627 78.6195 17.6342 77.8441 17.7338H70.5925C69.3075 17.7338 67.6588 16.6741 67.6588 14.3816H77.31C77.8392 14.3592 78.715 13.8923 78.715 12.8799C78.715 11.9435 77.8992 11.3022 77.3321 11.3022L66.5674 11.301L66.5735 21.6761C66.5747 22.8093 65.721 23.5726 64.7998 23.5726C63.9264 23.5726 63.0543 22.7844 63.0543 21.7247V11.1528C63.0543 9.37713 64.8966 7.94887 66.1815 7.94887Z" fill="white"/>
<path fill-rule="evenodd" clip-rule="evenodd" d="M145.326 27.6146C141.107 25.4965 138.712 21.1669 138.712 16.3317C138.712 8.88902 144.498 2.89206 151.932 2.89206C159.333 2.89206 165.152 8.93634 165.152 16.3317C165.152 21.1669 162.473 25.6509 158.551 27.6146C154.574 29.6057 149.291 29.6057 145.326 27.6146ZM143.752 20.9776C146.644 17.6828 150.609 10.9623 151.939 6.37618C153.257 10.9623 157.222 17.6828 160.22 20.9776H153.257V22.9687C153.257 24.4032 154.341 25.2811 155.517 25.2661C157.222 25.245 159.426 24.4032 160.872 22.0211C161.28 21.3499 162.516 19.0226 162.516 16.3317C162.516 10.595 157.793 5.58174 151.933 5.58174C146.008 5.58174 141.35 10.453 141.35 16.3317C141.35 19.0226 142.065 20.3649 143.051 22.0684C144.404 24.4032 146.644 25.245 148.435 25.2661C149.723 25.2823 150.609 24.1068 150.625 22.9749L150.609 20.9776H143.752Z" fill="white"/>
</svg>
