<svg width="196" height="40" viewBox="0 0 196 40" fill="none" xmlns="http://www.w3.org/2000/svg">
<path d="M0 0V31.2533H8.72843C11.2431 31.2533 13.2102 30.8946 14.6374 30.1793C16.0645 29.4639 17.2287 28.3854 18.1335 26.94C19.0379 25.4942 19.4869 23.8961 19.4869 22.1395C19.4869 20.3118 19.0527 18.7274 18.178 17.3904C17.3032 16.0507 15.9197 14.9364 14.029 14.0448C15.1568 13.1949 15.9715 12.2832 16.4726 11.3134C16.9732 10.3436 17.2245 9.26372 17.2245 8.07412C17.2245 6.24642 16.6759 4.659 15.5738 3.31132C14.4726 1.96851 12.9887 1.04757 11.1241 0.552458C9.81064 0.183898 7.73188 0 4.89393 0H0ZM99.4952 0.288239V31.5416H108.224C110.737 31.5416 112.705 31.1863 114.133 30.471C115.558 29.7556 116.721 28.6737 117.625 27.2283C118.533 25.7825 118.985 24.1844 118.985 22.4277C118.985 20.6 118.549 19.0191 117.673 17.6821C116.799 16.3424 115.414 15.2247 113.524 14.333C114.653 13.4831 115.468 12.5714 115.968 11.6016C116.469 10.6318 116.72 9.55196 116.72 8.36236C116.72 6.53466 116.168 4.95067 115.066 3.60299C113.964 2.26019 112.482 1.33581 110.619 0.840697C109.307 0.472137 107.227 0.288239 104.389 0.288239H99.4952ZM5.92603 5.67213H7.45368C8.81184 5.67213 9.82541 5.9597 10.4919 6.53341C11.1579 7.10668 11.4898 7.88301 11.4898 8.85991C11.4898 9.90786 11.1398 10.735 10.4406 11.3443C9.73921 11.9535 8.66436 12.2604 7.22129 12.2604H5.92603V5.67213ZM105.421 5.9638H106.949C108.31 5.9638 109.321 6.24794 109.987 6.82165C110.652 7.39492 110.985 8.17125 110.985 9.14815C110.985 10.1961 110.637 11.0267 109.936 11.6359C109.234 12.2452 108.162 12.5487 106.716 12.5487H105.421V5.9638ZM84.1128 7.83049C81.6428 7.83049 79.4112 8.36942 77.4144 9.44668C75.418 10.5222 73.8621 12.0046 72.7494 13.8869C71.6332 15.771 71.0782 17.8323 71.0782 20.0703C71.0782 23.2999 72.2232 26.1182 74.5163 28.5253C76.8085 30.9352 79.981 32.1386 84.0308 32.1386C88.5285 32.1386 92.0116 30.5262 94.4816 27.3038L89.926 24.1709C88.4874 25.9422 86.474 26.8268 83.8872 26.8268C81.7993 26.8268 80.1097 26.2052 78.8258 24.9601C77.5371 23.7163 76.8949 22.1107 76.8949 20.1458C76.8949 18.121 77.5645 16.4651 78.901 15.1703C80.2335 13.8759 81.9836 13.2281 84.1435 13.2281C85.3297 13.2281 86.3635 13.4133 87.2467 13.7806C88.1299 14.1505 89.0221 14.8068 89.926 15.7571L94.7345 13.1011C93.578 11.416 92.0929 10.1144 90.2712 9.19962C88.4518 8.28755 86.4001 7.83049 84.1128 7.83049ZM22.344 8.42755V31.5416H28.123V24.1057L28.7314 23.3782L35.5972 31.5416H43.256L32.8768 19.6895L43.1295 8.42755H36.0791L28.123 17.0747V8.42755H22.344ZM45.2279 8.42755L53.9802 29.819L49.2435 40H55.2105L69.6292 8.42755H63.71L57.1107 22.9321L51.13 8.42755H45.2279ZM123.039 8.42755V31.5416H126.108L137.597 18.2414V31.5416H143.226V8.42755H140.455L128.667 22.0022V8.42755H123.039ZM156.507 8.42755L146.685 31.5416H152.546L158.414 16.9649L164.172 31.5416H170.057L160.228 8.42755H156.507ZM182.446 8.42755L172.627 31.5416H178.488L184.356 16.9649L190.118 31.5416H196L186.171 8.42755H182.446ZM5.92603 17.5723H7.15635C9.49057 17.5723 11.1587 17.9592 12.1631 18.739C13.1679 19.5174 13.6702 20.5791 13.6702 21.9267C13.6702 23.115 13.2405 24.0228 12.3852 24.6444C11.529 25.2687 9.87039 25.5812 7.40925 25.5812H5.92603V17.5723ZM105.421 17.8605H106.652C108.985 17.8605 110.654 18.2509 111.658 19.0306C112.664 19.809 113.165 20.8673 113.165 22.215C113.165 23.4032 112.736 24.311 111.88 24.9327C111.026 25.557 109.366 25.8694 106.904 25.8694H105.421V17.8605Z" fill="white"/>
</svg>
