<svg width="40" height="38" viewBox="0 0 40 38" fill="none" xmlns="http://www.w3.org/2000/svg">
<path d="M40 0H0V2H4V38L8 34L12.0006 38L16 34L19.9999 38L24 34L28 38L32 34L36 38V2H40V0ZM34 33.1715L32 31.1715L28 35.1715L24.0001 31.1715L20 35.1715L16 31.1714L12.0005 35.1715L7.99988 31.1716L6 33.1715V2H34V33.1715ZM20 10C24.4112 10 28 13.5888 28 18C28 22.4112 24.4112 26 20 26C15.5888 26 12 22.4112 12 18C12 13.5888 15.5888 10 20 10ZM20 8C14.486 8 10 12.486 10 18C10 23.514 14.486 28 20 28C25.514 28 30 23.514 30 18C30 12.486 25.514 8 20 8ZM25 19H19V12H21V17H25V19Z" fill="#222222"/>
</svg>
