<svg width="174" height="35" viewBox="0 0 174 35" fill="none" xmlns="http://www.w3.org/2000/svg">
<g opacity="0.2">
<path d="M160.05 22.9995C159.778 22.9995 159.591 23.1204 159.438 23.2585L158.996 23.7075C158.962 23.742 158.928 23.7765 158.928 23.8283C158.928 23.8801 158.962 23.9147 158.996 23.9492L159.438 24.3981C159.591 24.5535 159.778 24.6571 160.05 24.6571C160.508 24.6571 160.848 24.2945 160.848 23.8283C160.848 23.3621 160.508 22.9995 160.05 22.9995ZM160.05 23.3448C160.304 23.3448 160.508 23.5521 160.508 23.8283C160.508 24.1046 160.304 24.3118 160.05 24.3118C159.897 24.3118 159.795 24.26 159.676 24.1391L159.353 23.8111L159.676 23.483C159.795 23.3794 159.897 23.3448 160.05 23.3448Z" fill="white"/>
<path d="M157.365 22.9995C156.923 22.9995 156.566 23.3621 156.566 23.8283C156.566 24.2945 156.906 24.6571 157.365 24.6571C157.637 24.6571 157.824 24.5363 157.976 24.3981L158.418 23.9492C158.452 23.9147 158.486 23.8801 158.486 23.8283C158.486 23.7765 158.469 23.742 158.418 23.7075L157.976 23.2585C157.824 23.1031 157.637 22.9995 157.365 22.9995ZM157.365 23.3448C157.518 23.3448 157.62 23.3966 157.739 23.5175L158.061 23.8456L157.739 24.1737C157.62 24.2945 157.518 24.3463 157.365 24.3463C157.11 24.3463 156.906 24.1219 156.906 23.8629C156.906 23.5521 157.11 23.3448 157.365 23.3448Z" fill="white"/>
<path d="M158.707 24.0528C158.656 24.0528 158.622 24.0873 158.588 24.1219L158.146 24.5708C157.993 24.7262 157.891 24.9161 157.891 25.1924C157.891 25.6413 158.248 26.004 158.707 26.004C159.166 26.004 159.523 25.6586 159.523 25.1924C159.523 24.9161 159.404 24.7262 159.268 24.5708L158.826 24.1219C158.792 24.0873 158.758 24.0528 158.707 24.0528ZM158.707 24.4845L159.03 24.8125C159.149 24.9334 159.2 25.037 159.2 25.1924C159.2 25.4514 158.996 25.6586 158.724 25.6586C158.452 25.6586 158.248 25.4514 158.248 25.1924C158.248 25.037 158.299 24.9334 158.401 24.8125L158.707 24.4845Z" fill="white"/>
<path d="M158.707 21.6527C158.248 21.6527 157.891 21.998 157.891 22.4642C157.891 22.7405 158.01 22.9304 158.146 23.0858L158.588 23.5348C158.622 23.5693 158.656 23.6039 158.707 23.6039C158.758 23.6039 158.792 23.5693 158.826 23.5348L159.268 23.0858C159.421 22.9304 159.523 22.7405 159.523 22.4642C159.523 21.998 159.166 21.6527 158.707 21.6527ZM158.707 21.998C158.979 21.998 159.183 22.2052 159.183 22.4642C159.183 22.6196 159.132 22.7232 159.03 22.8441L158.707 23.1722L158.384 22.8441C158.265 22.7232 158.214 22.6196 158.214 22.4642C158.231 22.2052 158.435 21.998 158.707 21.998Z" fill="white"/>
</g>
<path d="M169.463 28.3177V29.1811H171.247V34.8964H172.199V29.1811H173.983V28.3177H169.463ZM165.929 31.8747H168.477V31.0459H165.929V29.1811H169.123V28.3177H164.96V34.8964H169.208V34.0331H165.912V31.8747H165.929ZM163.788 34.1194C163.584 34.1194 163.533 33.9985 163.448 33.7913C163.159 32.9798 163.176 32.5999 162.972 32.1337C162.887 31.9265 162.666 31.5466 162.207 31.3912C162.53 31.2358 162.7 30.9423 162.785 30.666C162.955 30.1826 163.006 29.4574 163.193 29.2329C163.261 29.1465 163.397 29.0602 163.482 29.0602C163.516 29.0602 163.55 29.0602 163.669 29.0775L163.771 29.0947V28.3005L163.703 28.2832C163.635 28.2659 163.516 28.2487 163.38 28.2487C163.074 28.2487 162.598 28.3523 162.343 28.9393C162.122 29.4401 162.088 30.2344 161.833 30.6488C161.613 31.0114 161.273 31.0804 160.916 31.0804H160.117V28.3177H159.166V34.8964H160.117V31.8747H160.899C161.324 31.8747 161.749 31.892 162.003 32.3409C162.105 32.5136 162.156 32.7726 162.275 33.2215C162.377 33.6877 162.479 34.1021 162.649 34.4302C162.887 34.8619 163.227 35 163.55 35H163.567C163.754 35 163.873 34.9655 164.008 34.8964L164.042 34.8792V34.0849L163.924 34.1194C163.907 34.1194 163.856 34.1194 163.788 34.1194ZM157.314 31.1322C157.008 31.4258 156.566 31.4258 156.277 31.4258H155.139V29.1811H156.362C156.651 29.1811 157.059 29.2156 157.331 29.4574C157.467 29.561 157.67 29.8027 157.67 30.2516C157.653 30.6488 157.5 30.9596 157.314 31.1322ZM157.976 28.7494C157.467 28.3695 156.855 28.3177 156.345 28.3177H154.17V34.8964H155.139V32.2891H156.379C156.396 32.2891 156.413 32.2891 156.43 32.2891C156.855 32.2891 157.517 32.2891 158.078 31.7711C158.282 31.5984 158.69 31.115 158.69 30.2689C158.673 29.4574 158.299 28.9911 157.976 28.7494ZM149.99 32.2201L150.823 29.561L151.638 32.2201H149.99ZM151.417 28.3177H150.381L148.291 34.8964H149.191L149.752 33.0316H151.893L152.488 34.8964H153.541L153.507 34.7756L151.417 28.3177ZM144.433 33.3079L142.598 28.3177H141.29V34.8964H142.123V29.6646L144.06 34.8964H144.705L146.608 29.6473V34.8964H147.56V28.3177H146.252L144.433 33.3079ZM139.064 31.1322C138.741 31.4258 138.299 31.4258 138.01 31.4258H136.872V29.1811H138.078C138.367 29.1811 138.792 29.2156 139.064 29.4574C139.2 29.561 139.404 29.8027 139.404 30.2516C139.404 30.6488 139.251 30.9596 139.064 31.1322ZM139.71 28.7494C139.217 28.3695 138.588 28.3177 138.078 28.3177H135.903V34.8964H136.872V32.2891H138.112C138.129 32.2891 138.146 32.2891 138.146 32.2891C138.588 32.2891 139.234 32.2891 139.795 31.7711C139.999 31.5984 140.406 31.115 140.406 30.2689C140.423 29.4574 140.05 28.9911 139.71 28.7494ZM131.655 31.8747H134.187V31.0459H131.655V29.1811H134.85V28.3177H130.687V34.8964H134.935V34.0331H131.638V31.8747H131.655ZM124.655 34.8964H125.623V29.1811H128.291V34.8964H129.259V28.3177H124.655V34.8964ZM121.715 32.0474L119.982 28.3177H118.962L121.222 33.1525C121.154 33.3769 121.018 33.705 120.831 33.8777C120.695 33.9985 120.475 34.1194 120.169 34.1194C120.05 34.1194 119.965 34.1021 119.846 34.0503L119.727 33.9985V34.8619L119.778 34.8792C119.88 34.9137 120.033 34.9482 120.22 34.9482C120.576 34.9482 120.984 34.8101 121.29 34.5338C121.715 34.1539 121.902 33.6187 122.072 33.1525L124.043 28.3177H123.159L121.715 32.0474ZM117.943 32.6345C117.841 33.187 117.552 33.5323 117.45 33.6705C117.161 33.964 116.906 34.1194 116.464 34.1194C115.734 34.1194 115.309 33.6532 115.071 33.1525C114.867 32.7035 114.782 32.0819 114.782 31.5294C114.782 31.0804 114.833 30.3898 115.122 29.889C115.479 29.2502 115.955 29.0775 116.447 29.0775C116.957 29.0775 117.297 29.2501 117.586 29.6991C117.756 29.9754 117.858 30.2689 117.909 30.4934L117.926 30.5797L118.011 30.5624L118.843 30.407L118.826 30.3207C118.741 29.6991 118.452 29.1465 118.079 28.8012C117.552 28.3005 116.991 28.1969 116.464 28.1969C116.04 28.1969 115.173 28.2659 114.493 29.0775C114.289 29.3192 113.746 30.0617 113.763 31.4776C113.763 32.3237 113.966 33.187 114.374 33.8259C115.02 34.8274 115.887 34.9655 116.464 34.9655H116.481C116.957 34.9655 117.535 34.8792 118.079 34.2748C118.452 33.8777 118.707 33.3424 118.809 32.8071L118.826 32.7208L117.943 32.5309V32.6345Z" fill="white"/>
<path d="M26.3548 10.1702C24.2818 10.1702 22.8884 11.0335 21.75 12.1731L17.6548 16.4553L21.75 20.7375C22.8884 21.8771 24.2818 22.7405 26.3548 22.7405C29.7703 22.7405 32.3871 19.926 32.3871 16.4553C32.3871 12.9847 29.7873 10.1702 26.3548 10.1702ZM26.3548 12.8638C28.241 12.8638 29.7363 14.4524 29.7363 16.4553C29.7363 18.4755 28.258 20.0468 26.3548 20.0468C25.2673 20.0468 24.4857 19.7015 23.6191 18.8209L21.2572 16.438L23.6021 14.0725C24.4857 13.2091 25.2673 12.8638 26.3548 12.8638Z" fill="white"/>
<path d="M6.03223 10.1702C2.5998 10.1702 0 12.9847 0 16.4553C0 19.926 2.5998 22.7405 6.01523 22.7405C8.08828 22.7405 9.48164 21.8771 10.6201 20.7375L14.7152 16.4553L10.6371 12.1731C9.49863 11.0335 8.08828 10.1702 6.03223 10.1702ZM6.03223 12.8638C7.11973 12.8638 7.90137 13.2091 8.78496 14.0897L11.1469 16.4726L8.78496 18.8209C7.90137 19.7188 7.11973 20.0468 6.03223 20.0468C4.14609 20.0468 2.65078 18.4755 2.65078 16.4553C2.65078 14.4351 4.1291 12.8638 6.03223 12.8638Z" fill="white"/>
<path d="M16.1935 17.9403C15.8367 17.9403 11.9795 22.1016 11.9795 22.1016C10.858 23.2585 10.0084 24.6744 10.0084 26.7809C10.0084 30.2516 12.7781 32.8934 16.1935 32.8934C19.609 32.8934 22.3787 30.2516 22.3787 26.7809C22.3787 24.6744 21.5291 23.2585 20.4076 22.1016L16.1935 17.9403ZM16.1935 21.6009L18.5215 23.9837C19.3881 24.8988 19.7279 25.6758 19.7279 26.7809C19.7279 28.7321 18.1986 30.217 16.1935 30.217C14.1714 30.217 12.6591 28.7494 12.6591 26.7809C12.6591 25.6758 12.999 24.8816 13.8486 23.9837L16.1935 21.6009Z" fill="white"/>
<path d="M16.1935 0C12.7781 0 10.0084 2.64184 10.0084 6.11248C10.0084 8.21904 10.858 9.63493 11.9795 10.7918L16.1935 14.9531L20.4076 10.7918C21.5291 9.63493 22.3787 8.21904 22.3787 6.11248C22.3787 2.64184 19.609 0 16.1935 0ZM16.1935 2.69364C18.1816 2.69364 19.7279 4.19586 19.7279 6.12975C19.7279 7.23483 19.3881 8.02911 18.5215 8.92699L16.1935 11.3098L13.8656 8.92699C12.999 8.02911 12.6591 7.23483 12.6591 6.12975C12.6591 4.16132 14.1714 2.69364 16.1935 2.69364Z" fill="white"/>
<path d="M68.1216 21.6527C66.8132 21.6527 65.9976 20.5994 65.9976 18.8382V16.1101C65.9976 14.6078 66.8302 13.4855 68.1216 13.4855C69.515 13.4855 70.3816 14.6424 70.3816 17.5259C70.3816 19.6498 69.9228 21.6527 68.1216 21.6527ZM69.8888 11.0336C69.6679 10.999 69.464 10.9818 69.2601 10.9818C67.9857 11.0508 66.8302 11.4825 65.9806 12.0005V11.6034C65.9806 11.448 66.0486 11.1545 65.6748 11.1545H63.5847C62.99 11.2063 62.5312 11.6379 62.5142 12.1732V14.4179V25.4342C62.5142 27.3508 63.8566 28.5422 65.5048 28.5422H65.6408C65.8107 28.5422 65.9806 28.4732 65.9806 28.1623V23.3794C66.6943 23.8111 67.5949 24.1564 68.8013 24.1737C69.2431 24.1737 69.6339 24.1392 70.0078 24.0701C72.1828 23.742 74.1539 21.7563 74.1539 17.4396C74.1709 13.8654 72.6755 11.2408 69.8888 11.0336Z" fill="white"/>
<path d="M156.243 20.5822C155.784 21.3937 155.105 21.6527 154.442 21.6527C153.779 21.6527 153.1 21.3937 152.641 20.5822C152.352 20.0641 152.08 19.2353 152.08 17.5259C152.08 16.5935 152.131 15.3675 152.709 14.4524C153.117 13.779 153.66 13.4682 154.442 13.4682C155.224 13.4682 155.75 13.779 156.175 14.4524C156.753 15.3675 156.821 16.5762 156.821 17.5259C156.804 19.2353 156.532 20.0469 156.243 20.5822ZM154.442 10.999C153.218 10.999 151.57 11.2926 150.126 12.7257C149.531 13.3128 148.274 14.8841 148.274 17.5259C148.274 19.5634 149.055 21.3764 150.211 22.4988C151.06 23.3103 152.454 24.1046 154.425 24.1046C156.396 24.1046 157.789 23.3103 158.639 22.4988C159.811 21.3592 160.593 19.5461 160.593 17.5259C160.593 14.8841 159.319 13.3128 158.741 12.7257C157.314 11.2926 155.648 10.999 154.442 10.999Z" fill="white"/>
<path d="M132.998 13.4682C133.678 13.4682 134.238 13.8308 134.561 14.2798C134.697 14.4697 134.799 14.746 134.884 15.0568C134.986 15.3503 135.173 15.5575 135.479 15.5575H138.028C138.164 15.5575 138.265 15.4366 138.248 15.2985C138.028 14.1589 137.484 13.0365 136.685 12.2941C135.768 11.4307 134.374 10.9818 132.964 10.9818C131.384 10.9818 129.973 11.6034 129.022 12.4667C128.07 13.3301 127.051 14.9704 127.051 17.5605C127.051 19.7188 127.781 21.4973 128.869 22.5679C129.514 23.1895 130.789 24.1046 132.896 24.1046C134.782 24.1046 135.972 23.3794 136.651 22.7923C137.399 22.1189 137.977 21.1174 138.248 19.9778C138.265 19.8915 138.248 19.7361 138.045 19.7361H135.411C135.105 19.7534 134.969 19.926 134.867 20.2023C134.867 20.2023 134.85 20.2368 134.833 20.2886C134.833 20.3059 134.833 20.3059 134.816 20.3232C134.816 20.3404 134.799 20.3577 134.799 20.375C134.731 20.5304 134.663 20.6685 134.561 20.8066C134.136 21.4801 133.695 21.6355 133.066 21.6355C132.471 21.6355 131.893 21.4801 131.401 20.634C131.061 20.0469 130.874 19.1836 130.874 17.5432C130.874 15.592 131.163 14.8323 131.384 14.4524C131.706 13.8654 132.318 13.4682 132.998 13.4682Z" fill="white"/>
<path d="M52.7947 16.1964C52.7947 15.4366 53.0665 14.7114 53.4743 14.2625C53.9161 13.7963 54.5788 13.4682 55.3265 13.4682C56.2781 13.4682 56.8388 13.9344 57.1786 14.4179C57.5185 14.9186 57.6884 15.6093 57.6714 16.1964H52.7947ZM55.2755 10.999C54.171 10.999 52.6247 11.1717 51.1804 12.4149C50.2118 13.261 48.9884 14.815 48.9884 17.595C48.9884 19.9778 49.906 21.4973 50.7726 22.3779C51.6902 23.3103 53.2025 24.1391 55.2585 24.1391C56.9238 24.1391 58.2661 23.6902 59.2347 22.9995C59.9144 22.516 60.747 21.6872 61.1888 20.3404C61.2228 20.2368 61.2738 20.0123 61.0019 20.0123H58.0792C57.9093 20.0123 57.7224 20.2195 57.6714 20.3059C57.5695 20.5476 57.4165 20.7721 57.2636 20.9448C56.9238 21.2901 56.346 21.67 55.4454 21.67C54.273 21.67 53.5933 21.0484 53.2195 20.3404C52.9306 19.7879 52.7777 19.0281 52.8116 18.3375H60.9509C61.2738 18.2857 61.3927 18.0957 61.4097 17.6468C61.4097 17.6468 61.4097 17.595 61.4097 17.5432C61.3757 15.4884 60.713 14.0207 59.9823 13.1401C59.1327 12.0868 57.6374 10.999 55.2755 10.999Z" fill="white"/>
<path d="M98.5546 19.7533C97.773 18.113 97.0763 17.1288 96.4136 17.0424C96.4136 17.0424 97.2972 16.9906 97.8919 15.333C98.0958 14.7459 98.6735 13.3991 99.0644 12.5703C99.2003 12.2595 99.4382 11.9314 99.6931 11.6206C99.7271 11.5861 99.744 11.517 99.744 11.4652C99.744 11.3271 99.6251 11.2062 99.4892 11.1889H96.9403C96.2437 11.2062 95.9038 11.7588 95.6829 12.3113C95.3091 13.1919 95.1562 13.7444 94.6124 14.9704C94.3575 15.5575 93.8818 16.1791 92.8452 16.1791H92.0976V11.6206C92.0976 11.4652 92.1655 11.1717 91.7917 11.1717H89.5318C88.937 11.2235 88.4612 11.6724 88.4612 12.2077V21.9117C88.4612 22.188 88.4782 22.5678 88.5972 22.9304C88.8521 23.483 89.3448 23.9492 89.9736 23.9492H91.5708C91.9786 23.9492 92.0976 23.7247 92.0976 23.4139V18.3029H92.7433C94.1366 18.3029 94.7483 19.926 95.3431 21.0656C95.8868 22.1189 96.8384 23.9837 98.5206 23.8974H100.526C100.662 23.8801 100.764 23.7765 100.764 23.6384C100.764 23.5866 100.747 23.552 100.73 23.5002C100.254 22.7232 99.2003 20.9793 98.5546 19.7533Z" fill="white"/>
<path d="M46.7795 7.63199H36.7881C36.1593 7.63199 35.5816 8.16726 35.5816 8.89247C35.5816 8.89247 35.5816 20.5649 35.5816 20.6167C35.5816 21.0656 35.6326 21.6009 35.8535 22.1362C36.3123 23.1377 37.2638 23.8629 38.4023 24.001H38.8611C39.184 24.001 39.2349 23.8456 39.2349 23.483V11.5343C39.2859 11.3098 39.4898 11.1199 39.7277 11.1199H43.8228C44.0607 11.1199 44.2646 11.3098 44.3156 11.5343C44.3156 11.5343 44.2986 20.4268 44.3156 20.5994C44.3156 21.0484 44.3496 21.5836 44.5705 22.1189C45.0293 23.1204 45.9808 23.8456 47.1193 23.9837H47.5781C47.901 23.9837 47.9519 23.8283 47.9519 23.4657V8.87521C47.9689 8.28813 47.4592 7.63199 46.7795 7.63199Z" fill="white"/>
<path d="M149.514 11.4307C149.548 11.3098 149.531 11.1544 149.293 11.1544H137.603C137.348 11.1544 137.331 11.3098 137.365 11.4307C137.722 12.6394 138.605 13.779 139.863 13.8481H141.137C141.409 13.8826 141.63 14.1071 141.63 14.4006V20.9275C141.63 21.3937 141.698 21.7045 141.885 22.1362C142.343 23.1377 143.295 23.8629 144.416 23.9837H144.875C145.198 23.9837 145.249 23.8283 145.249 23.4657V14.4006C145.249 14.1243 145.47 13.8826 145.742 13.8481H147.016C148.274 13.7963 149.157 12.6567 149.514 11.4307Z" fill="white"/>
<path d="M173.847 23.5175C173.371 22.7405 172.318 20.9793 171.672 19.7533C170.89 18.113 170.194 17.1288 169.531 17.0252C169.531 17.0252 170.415 16.9734 171.009 15.3157C171.213 14.7459 171.791 13.3818 172.182 12.553C172.318 12.2422 172.556 11.9142 172.811 11.6033C172.845 11.5688 172.862 11.4997 172.862 11.4479C172.862 11.3098 172.76 11.1889 172.607 11.1717H170.058C169.361 11.1889 169.021 11.7415 168.8 12.294C168.427 13.1746 168.274 13.7272 167.73 14.9531C167.475 15.5402 166.999 16.1618 165.963 16.1618H165.232V11.6206C165.232 11.4652 165.3 11.1717 164.926 11.1717H162.666C162.071 11.2235 161.613 11.6724 161.596 12.2077V21.9117C161.596 22.188 161.613 22.5678 161.732 22.9304C161.987 23.483 162.479 23.9492 163.125 23.9492H164.722C165.13 23.9492 165.249 23.7247 165.249 23.4139V18.3029H165.895C167.288 18.3029 167.9 19.926 168.495 21.0656C169.038 22.1189 169.99 23.9837 171.672 23.8974H173.677C173.813 23.8801 173.915 23.7765 173.915 23.6384C173.881 23.5866 173.864 23.552 173.847 23.5175Z" fill="white"/>
<path d="M106.796 21.6527C105.488 21.6527 104.672 20.5994 104.672 18.8382V16.1101C104.672 14.6078 105.504 13.4855 106.796 13.4855C108.189 13.4855 109.056 14.6424 109.056 17.5259C109.073 19.6498 108.614 21.6527 106.796 21.6527ZM108.58 11.0336C108.359 10.999 108.155 10.9818 107.951 10.9818C106.66 11.0508 105.521 11.4825 104.655 12.0005V11.6034C104.655 11.448 104.723 11.1545 104.349 11.1545H102.259C101.664 11.2063 101.205 11.6379 101.188 12.1732V14.4179V25.4342C101.188 27.3508 102.531 28.5422 104.179 28.5422H104.315C104.485 28.5422 104.672 28.4732 104.672 28.1623V23.3794C105.386 23.8111 106.286 24.1564 107.493 24.1737C107.917 24.1737 108.325 24.1392 108.699 24.0701C110.874 23.742 112.862 21.7563 112.862 17.4396C112.862 13.8654 111.384 11.2408 108.58 11.0336Z" fill="white"/>
<path d="M117.586 16.1964C117.586 15.4366 117.858 14.7114 118.266 14.2625C118.707 13.7963 119.353 13.4682 120.118 13.4682C121.069 13.4682 121.63 13.9344 121.97 14.4179C122.31 14.9186 122.48 15.6093 122.463 16.1964H117.586ZM120.067 10.999C118.962 10.999 117.416 11.1717 115.972 12.4149C115.003 13.261 113.78 14.815 113.78 17.595C113.78 19.9778 114.697 21.4973 115.547 22.3779C116.481 23.3103 117.977 24.1391 120.033 24.1391C121.681 24.1391 123.023 23.6902 124.009 22.9995C124.689 22.516 125.504 21.6872 125.963 20.3404C125.997 20.2368 126.048 20.0123 125.776 20.0123H122.853C122.684 20.0123 122.497 20.2195 122.463 20.3059C122.361 20.5476 122.208 20.7721 122.038 20.9448C121.698 21.2901 121.12 21.67 120.22 21.67C119.047 21.67 118.367 21.0484 118.011 20.3404C117.722 19.7879 117.569 19.0281 117.603 18.3375H125.742C126.065 18.2857 126.184 18.0957 126.201 17.6468V17.5432C126.167 15.4884 125.504 14.0207 124.757 13.1401C123.924 12.0868 122.429 10.999 120.067 10.999Z" fill="white"/>
<path d="M83.2447 11.2062H77.4164H75.5303C75.5303 13.5027 77.7393 14.2797 79.3705 14.2797H84.6211H87.085C87.085 11.9832 84.876 11.2062 83.2447 11.2062Z" fill="white"/>
<path d="M83.2447 16.0755H77.4164H75.5303C75.5303 18.372 77.7393 19.149 79.3705 19.149H84.6211H87.085C87.085 16.8697 84.876 16.0755 83.2447 16.0755Z" fill="white"/>
<path d="M83.2447 20.9448H77.4164H75.5303C75.5303 23.224 77.7393 24.0183 79.3705 24.0183H84.6211H87.085C87.085 21.7391 84.876 20.9448 83.2447 20.9448Z" fill="white"/>
</svg>
