<svg width="40" height="39" viewBox="0 0 40 39" fill="none" xmlns="http://www.w3.org/2000/svg">
<path d="M39.6792 11.3269L31.7144 0.840508C31.3541 0.360218 30.6337 0 30.0333 0H9.54095C8.94059 0 8.22015 0.360218 7.85993 0.840508L0.295357 11.3269C-0.104885 11.8872 -0.104885 12.7677 0.335382 13.3281L18.9867 37.8629C19.0667 37.943 19.1468 38.063 19.2268 38.1031C19.467 38.2631 19.7071 38.3832 19.9873 38.3832C20.3875 38.3832 20.7878 38.1831 21.0279 37.8629L39.5991 13.3281C40.1194 12.7677 40.1194 11.8872 39.6792 11.3269ZM30.0333 1.68102C30.1134 1.68102 30.3535 1.80109 30.3936 1.84111L37.5979 11.3669H29.1528C29.1128 11.3269 29.0728 11.2468 29.0327 11.2068L22.2687 1.68102H30.0333ZM20.2674 1.68102L27.1516 11.4069H12.7429L19.587 1.68102H20.2674ZM9.22076 1.84111C9.26078 1.76107 9.4609 1.68102 9.58097 1.68102H17.5858L10.8217 11.2068C10.7817 11.2468 10.7417 11.3269 10.7017 11.3669H2.29657L9.22076 1.84111ZM2.1765 13.0479H10.5416V13.0879L17.5458 33.2601L2.1765 13.0479ZM19.9072 34.9812L12.3026 13.0479H27.5919L19.9072 34.9812ZM22.1086 33.8205L29.3129 13.0879V13.0479H37.798L22.1086 33.8205Z" fill="#222222"/>
</svg>
