<svg width="83" height="63" viewBox="0 0 83 63" fill="none" xmlns="http://www.w3.org/2000/svg">
<path d="M78.2236 21.7421C78.5416 21.6878 78.999 21.6412 79.4255 21.6412C80.0924 21.6412 80.5266 21.7731 80.8213 22.0368C81.0539 22.2463 81.2012 22.5798 81.2012 22.9599C81.2012 23.5882 80.798 24.0148 80.3017 24.1854V24.2087C80.6662 24.3406 80.8833 24.6819 80.9996 25.1783C81.1624 25.8531 81.271 26.3185 81.3718 26.5047H80.7282C80.6507 26.3651 80.5421 25.954 80.4103 25.3489C80.263 24.6819 80.0071 24.4337 79.441 24.4104H78.8517V26.4969H78.2236V21.7421ZM78.8517 23.9372H79.4876C80.1544 23.9372 80.5809 23.5727 80.5809 23.0219C80.5809 22.4014 80.1311 22.1299 79.472 22.1299C79.1774 22.1299 78.9603 22.1532 78.8595 22.1842V23.9372H78.8517Z" fill="#222222"/>
<path d="M79.6348 27.4355C77.7816 27.4355 76.2695 25.9229 76.2695 24.0691C76.2695 22.2152 77.7816 20.7027 79.6348 20.7027C81.488 20.7027 83.0001 22.2152 83.0001 24.0691C83.0001 25.9229 81.488 27.4355 79.6348 27.4355ZM79.6348 21.2999C78.1073 21.2999 76.8666 22.541 76.8666 24.0691C76.8666 25.5971 78.1073 26.8382 79.6348 26.8382C81.1624 26.8382 82.403 25.5971 82.403 24.0691C82.403 22.541 81.1624 21.2999 79.6348 21.2999Z" fill="#222222"/>
<path d="M5.33483 14.2879C5.80783 14.3577 6.19553 14.5981 6.48244 14.9937C6.76158 15.3738 6.86239 15.8159 6.78485 16.3279C6.6918 16.9484 6.26532 17.5379 5.51317 18.0886C4.76102 18.6471 4.0554 18.9186 3.40405 18.9186L2.66741 18.0499C2.61314 17.9258 2.65191 17.8792 2.79923 17.9025C3.14041 18.1042 3.4971 18.2283 3.86155 18.2903C4.37332 18.3679 4.86958 18.2283 5.35034 17.8715C5.79232 17.5457 6.05596 17.0958 6.14126 16.5063C6.19554 16.1805 6.08698 15.8392 5.82334 15.4824C5.51317 15.0635 5.14098 14.8231 4.69899 14.7533C4.22599 14.6835 3.73748 14.8308 3.23346 15.2032L2.54335 15.7151C2.45805 15.7771 2.38827 15.7616 2.32623 15.6841C2.2642 15.5987 2.27195 15.5289 2.35725 15.4669L3.1094 14.9084C3.52812 14.5981 3.7685 14.2646 3.82278 13.9C3.8693 13.5665 3.77625 13.2485 3.55138 12.9304C3.33427 12.6357 3.06287 12.465 2.7372 12.4185C2.2642 12.3487 1.84548 12.4418 1.48879 12.7055C1.07007 13.0158 0.821936 13.4036 0.752149 13.8768C0.705624 14.2025 0.728886 14.5438 0.821936 14.8929C0.837444 15.079 0.775411 15.1101 0.651345 14.9705L0 14.0939C0.209361 13.551 0.666854 13.0235 1.35697 12.5116C2.04709 11.9996 2.66741 11.7902 3.21796 11.8678C3.65219 11.9376 3.99337 12.1237 4.21824 12.4418C4.46637 12.7753 4.56717 13.0933 4.52065 13.3803C4.47412 13.6751 4.40434 13.9 4.30353 14.0784C4.22599 14.2336 4.25701 14.3034 4.41209 14.2879C4.66797 14.2336 4.97039 14.2336 5.33483 14.2879Z" fill="#222222"/>
<path d="M8.11857 17.375C8.07205 17.4991 8.01001 17.4991 7.94023 17.3905L7.75413 16.1727C7.93247 16.0641 8.04103 15.8625 8.07205 15.5677C8.14959 14.8463 7.8937 13.7682 7.29663 12.3332C7.16481 12.0151 6.91668 11.9686 6.56775 12.1858C6.43593 12.1703 6.39716 12.1082 6.44368 11.9841L9.14987 10.3397C9.30495 10.3397 9.34372 10.4095 9.27393 10.5414C8.96377 10.7353 8.90174 10.9835 9.08783 11.2938L10.6542 13.869C10.817 14.1327 11.0574 14.1793 11.3675 13.9853L11.6002 13.8457L12.3213 14.73C12.3678 14.8541 12.3368 14.9084 12.2282 14.8774C11.9569 14.7377 11.732 14.6447 11.5536 14.5981C11.197 14.5128 10.879 14.5516 10.6154 14.7145L9.04906 15.6686C8.49077 16.0021 8.1806 16.5683 8.11857 17.375ZM7.51375 11.7902C7.48273 11.9376 7.52926 12.1625 7.66108 12.4805C8.14959 13.6828 8.3667 14.7533 8.32793 15.6918C8.3667 15.7616 8.43649 15.7616 8.52178 15.7073L9.9563 14.8308C10.2199 14.6679 10.2665 14.4275 10.0726 14.1172L8.42874 11.4101C8.32018 11.2317 8.15734 11.2084 7.93247 11.3481C7.69209 11.5032 7.55252 11.6506 7.51375 11.7902Z" fill="#222222"/>
<path d="M13.6865 8.45481C14.2448 8.64097 14.6945 9.07535 15.028 9.75794C15.3614 10.4405 15.4389 11.0533 15.2451 11.6118C15.0512 12.1703 14.6945 12.5814 14.1517 12.8451C13.5934 13.1244 13.0507 13.1709 12.5234 12.9925C11.9651 12.8063 11.5153 12.3564 11.1664 11.6583C10.833 10.9835 10.7554 10.363 10.9493 9.80448C11.1431 9.246 11.4998 8.83489 12.0349 8.57116C12.5777 8.30743 13.1282 8.26865 13.6865 8.45481ZM11.4611 9.60281C11.3215 10.0217 11.43 10.6034 11.8022 11.3558C12.1667 12.1005 12.5621 12.5504 12.9809 12.69C13.3686 12.8218 13.7253 12.8063 14.0509 12.6434C14.3766 12.4805 14.6092 12.2091 14.7411 11.829C14.8806 11.4101 14.7721 10.8284 14.3999 10.076C14.0277 9.33132 13.6322 8.88143 13.2212 8.74181C12.8335 8.60995 12.4846 8.62546 12.1589 8.78835C11.8178 8.94349 11.5929 9.21497 11.4611 9.60281Z" fill="#222222"/>
<path d="M17.3456 6.25191C17.8574 6.05799 18.3536 6.06574 18.8189 6.27518C19.2919 6.48461 19.6641 6.95777 19.9432 7.6869C20.2379 8.47032 20.2456 9.17618 19.9587 9.81223C19.7649 10.2466 19.4547 10.5491 19.0438 10.7043C18.6793 10.8439 18.3381 10.8749 18.0357 10.7973C17.8729 10.8051 17.8186 10.8827 17.8729 11.03L18.1365 11.7204C18.2373 11.9919 18.4467 12.0617 18.7646 11.9453C18.8887 11.9841 18.9197 12.0539 18.8499 12.1625L17.3146 12.7443C17.1905 12.7055 17.1595 12.6357 17.2293 12.5271C17.5472 12.403 17.6558 12.2091 17.555 11.9453L15.9964 7.84979C15.9499 7.72568 15.7638 7.67138 15.4303 7.6869C15.252 7.67138 15.2287 7.59382 15.345 7.46971C15.725 7.21374 15.9266 6.91123 15.9576 6.56217C16.0274 6.45358 16.0972 6.45358 16.167 6.56993L16.291 6.89571C16.3608 7.01206 16.4461 7.00431 16.5392 6.88796C16.7641 6.58544 17.0354 6.36826 17.3456 6.25191ZM18.8887 10.5181C19.1291 10.425 19.3152 10.2466 19.4315 9.97513C19.6563 9.47094 19.6098 8.78835 19.2841 7.93511C19.036 7.27579 18.7026 6.85693 18.2994 6.67852C17.9272 6.51563 17.5705 6.49236 17.2293 6.62423C16.9346 6.73282 16.702 7.03533 16.5237 7.52401L17.6325 10.4483C18.1133 10.6344 18.5242 10.6577 18.8887 10.5181Z" fill="#222222"/>
<path d="M24.0381 4.65401C24.5499 4.94101 24.9143 5.45295 25.1159 6.18209C25.3176 6.91122 25.2788 7.53175 24.9841 8.0437C24.6972 8.55564 24.263 8.89693 23.6814 9.05983C23.0844 9.23047 22.5338 9.17618 22.0531 8.90469C21.5413 8.61769 21.1769 8.09024 20.9675 7.33784C20.7659 6.6087 20.8047 5.98817 21.0993 5.47623C21.3862 4.96428 21.8204 4.62299 22.402 4.4601C22.9836 4.29721 23.5264 4.36702 24.0381 4.65401ZM21.6421 5.36763C21.425 5.75547 21.4327 6.34498 21.6576 7.15167C21.8825 7.95837 22.1849 8.46256 22.5726 8.67975C22.9215 8.88142 23.2782 8.92796 23.6272 8.83488C23.9761 8.73404 24.2552 8.5091 24.4568 8.16005C24.674 7.77221 24.674 7.1827 24.4413 6.376C24.2165 5.57706 23.9141 5.06512 23.5264 4.84793C23.1697 4.65401 22.8207 4.59972 22.4718 4.70055C22.1229 4.78588 21.8437 5.01082 21.6421 5.36763Z" fill="#222222"/>
<path d="M29.0544 3.39743C29.3335 3.57584 29.5041 3.80854 29.5662 4.08778C29.6282 4.36702 29.5972 4.59972 29.4809 4.78588C29.3568 4.97204 29.1862 5.10391 28.9691 5.17372C28.8993 5.24353 28.9148 5.29783 29.0001 5.32885C29.3025 5.36764 29.5662 5.46072 29.7755 5.60034C29.9616 5.71669 30.0934 5.93388 30.1555 6.23639C30.2253 6.5389 30.1865 6.80263 30.0469 7.01982C29.8298 7.36111 29.4886 7.58605 29.0311 7.68689L26.4335 8.26089C26.2862 8.21435 26.2707 8.13678 26.387 8.02819C26.7359 7.92735 26.8755 7.71016 26.8057 7.37662L26.1776 4.5144C26.1001 4.15759 25.883 4.01797 25.5263 4.09554C25.3867 4.049 25.3634 3.97143 25.4797 3.87059L28.0696 3.29659C28.4728 3.20351 28.7985 3.2423 29.0544 3.39743ZM28.7907 4.94102C28.9071 4.75486 28.9381 4.52215 28.876 4.24291C28.8218 3.98694 28.6977 3.80078 28.5116 3.68443C28.3255 3.56808 28.0696 3.54481 27.7362 3.61462L27.1624 3.73873C26.8367 3.80854 26.7049 4.01021 26.7747 4.34375L26.9918 5.33661C27.0228 5.49174 27.1159 5.54604 27.2709 5.51501L28.341 5.28231C28.5194 5.23577 28.6667 5.12718 28.7907 4.94102ZM29.3801 7.08963C29.4809 6.93449 29.4964 6.69403 29.4188 6.36049C29.349 6.05798 29.2405 5.85631 29.0854 5.75547C28.7752 5.5538 28.403 5.50726 27.9688 5.60034L27.3562 5.7322C27.1779 5.77098 27.1081 5.86407 27.1391 6.0192L27.4183 7.27579C27.4881 7.60933 27.6897 7.73343 28.0231 7.66362L28.5969 7.53952C28.9846 7.46195 29.2405 7.30681 29.3801 7.08963Z" fill="#222222"/>
<path d="M34.5836 4.5842C34.8783 4.80915 35.0489 5.07288 35.0954 5.38314C35.1419 5.74771 35.0721 6.05798 34.8705 6.32171C34.6302 6.64749 34.289 6.84141 33.847 6.90346L31.2571 7.27578C31.1176 7.21373 31.102 7.14392 31.2261 7.04308C31.5906 6.98878 31.7456 6.78711 31.6914 6.42254L31.2804 3.52153C31.2261 3.16473 31.0168 3.00959 30.6601 3.05613C30.5205 2.99408 30.505 2.92427 30.629 2.82343L32.3272 2.58297C32.4668 2.64503 32.4823 2.71484 32.3582 2.81567C31.9938 2.86997 31.8464 3.07164 31.893 3.43621L32.0558 4.56093L33.374 4.37477C33.878 4.28945 34.289 4.36702 34.5836 4.5842ZM34.2192 6.35273C34.4053 6.12003 34.4751 5.84855 34.4441 5.53828C34.413 5.25128 34.2967 5.02634 34.0951 4.8712C33.8392 4.66177 33.5523 4.57645 33.2422 4.61523L32.428 4.70831C32.2497 4.73158 32.1721 4.84018 32.1876 5.04961L32.3272 6.29068C32.366 6.65525 32.5986 6.81038 33.0096 6.76384L33.4748 6.70954C33.8082 6.67076 34.0564 6.55441 34.2192 6.35273ZM36.5454 5.84079C36.5764 6.20536 36.7781 6.36825 37.1425 6.33722C37.2743 6.40703 37.2821 6.4846 37.1658 6.56992L35.4366 6.72506C35.3048 6.65525 35.297 6.57768 35.4211 6.49235C35.7855 6.46133 35.9484 6.25965 35.9173 5.90284L35.6692 2.97081C35.6382 2.60624 35.4443 2.44335 35.0799 2.47438C34.9326 2.41232 34.9326 2.327 35.0489 2.24168L36.7625 2.0943C36.8944 2.16411 36.9099 2.24168 36.7781 2.327C36.4136 2.35803 36.2508 2.5597 36.2818 2.91651L36.5454 5.84079Z" fill="#222222"/>
<path d="M41.6243 3.75425C41.6243 3.49052 41.5313 3.45174 41.3529 3.6379L39.4376 5.5538V5.70894C39.4376 6.0735 39.616 6.25967 39.9804 6.25967C40.1123 6.33723 40.1123 6.4148 39.9804 6.49237H38.259C38.1272 6.4148 38.1272 6.33723 38.259 6.25967C38.6235 6.25967 38.8096 6.08126 38.8096 5.70894V2.7769C38.8096 2.41234 38.6235 2.22618 38.259 2.22618C38.1272 2.14861 38.1272 2.07104 38.259 1.99347H39.9804C40.1123 2.07104 40.1123 2.14861 39.9804 2.22618C39.616 2.22618 39.4299 2.40458 39.4299 2.76915V4.8014C39.4299 5.06513 39.5229 5.10392 39.7013 4.91775L41.6166 3.00185V2.76915C41.6166 2.40458 41.4305 2.21842 41.066 2.21842C40.9342 2.14085 40.9342 2.06328 41.066 1.98572H42.7874C42.9192 2.06328 42.9192 2.14085 42.7874 2.21842C42.423 2.21842 42.2369 2.39682 42.2446 2.76915V5.70118C42.2446 6.06575 42.4307 6.25191 42.7874 6.25191C42.9192 6.32948 42.9192 6.40704 42.7874 6.48461H41.066C40.9342 6.40704 40.9342 6.32948 41.066 6.25191C41.4305 6.25191 41.6088 6.0735 41.6088 5.70118L41.6243 3.75425ZM39.8331 1.01613C39.9882 1.17126 40.2208 1.24883 40.5387 1.24883C40.8489 1.24883 41.0893 1.17126 41.2444 1.01613C41.2676 0.992859 41.2831 0.954075 41.2831 0.899778C41.2831 0.845481 41.2288 0.767914 41.128 0.667077C41.0505 0.58951 41.0117 0.480916 41.0117 0.356809C41.0117 0.255971 41.035 0.178404 41.0893 0.124107C41.1591 0.0387836 41.2521 0 41.3529 0C41.4537 0 41.5468 0.0387836 41.6243 0.116351C41.7018 0.193918 41.7406 0.341295 41.7406 0.550726C41.7406 0.783428 41.6476 0.992859 41.4692 1.17902C41.2831 1.36518 40.973 1.4505 40.531 1.4505C40.089 1.4505 39.7788 1.35742 39.5927 1.17902C39.4144 1.00062 39.3213 0.791184 39.3213 0.550726C39.3213 0.341295 39.3601 0.201674 39.4376 0.116351C39.5229 0.0387836 39.6082 0 39.7168 0C39.8176 0 39.9106 0.0387836 39.9882 0.116351C40.0425 0.170648 40.0657 0.248215 40.0657 0.349052C40.0657 0.480916 40.027 0.581753 39.9494 0.65932C39.8409 0.760158 39.7943 0.845481 39.7943 0.892022C39.7943 0.954075 39.8021 0.992859 39.8331 1.01613Z" fill="#222222"/>
<path d="M48.5638 6.18985C48.5173 6.55442 48.6724 6.75609 49.0291 6.80263C49.1454 6.89571 49.1376 6.97328 48.998 7.03533L47.2921 6.81039C47.1681 6.71731 47.1836 6.63974 47.3231 6.57769C47.6798 6.62423 47.8892 6.46909 47.9357 6.10453L48.3234 3.19576C48.37 2.8312 48.2149 2.62952 47.8582 2.58298C47.7341 2.4899 47.7496 2.41233 47.8892 2.35028L52.3866 2.94755C52.5029 3.04063 52.4951 3.11819 52.3556 3.18025C51.9911 3.13371 51.7895 3.28884 51.743 3.65341L51.3553 6.56217C51.3088 6.92674 51.4638 7.12841 51.8283 7.17495C51.9523 7.26803 51.9368 7.3456 51.7973 7.40766L50.0914 7.18271C49.9673 7.08963 49.9828 7.01206 50.1224 6.95001C50.4791 6.99655 50.6884 6.84142 50.735 6.47685L51.1227 3.56808C51.1692 3.20352 51.0141 3.00184 50.6497 2.9553L49.5641 2.81568C49.1996 2.76914 48.998 2.92428 48.9515 3.28884L48.5638 6.18985Z" fill="#222222"/>
<path d="M55.5656 3.46726C56.1006 3.58361 56.5116 3.85509 56.7907 4.28171C57.0699 4.71609 57.1319 5.31335 56.9691 6.08127C56.7985 6.89572 56.4185 7.50075 55.837 7.88082C55.4338 8.14455 55.0151 8.22988 54.5886 8.1368C54.2086 8.05923 53.9062 7.90409 53.6891 7.67139C53.5495 7.58607 53.4565 7.62485 53.4255 7.77999L53.2704 8.50912C53.2083 8.78836 53.3479 8.96676 53.6813 9.03657C53.7666 9.13741 53.7511 9.21498 53.6348 9.26927L52.0297 8.92022C51.9444 8.81939 51.9599 8.74958 52.0762 8.69528C52.4097 8.76509 52.6035 8.6565 52.6656 8.37725L53.565 4.08779C53.5883 3.96369 53.4642 3.81631 53.1773 3.64566C53.0455 3.53707 53.061 3.4595 53.2238 3.41296C53.6813 3.4052 54.0148 3.25783 54.2319 2.98634C54.3482 2.93204 54.4102 2.97083 54.4025 3.10269L54.3327 3.44399C54.3327 3.57585 54.4025 3.62239 54.5498 3.56809C54.891 3.43623 55.2322 3.39745 55.5656 3.46726ZM54.5576 7.88858C54.8134 7.94288 55.0616 7.88858 55.3097 7.72569C55.775 7.42318 56.1006 6.82591 56.2867 5.93389C56.4263 5.24354 56.3798 4.71609 56.1394 4.34376C55.9145 4.00247 55.6276 3.79304 55.2709 3.72323C54.9685 3.66117 54.6041 3.78528 54.1931 4.09555L53.5495 7.15945C53.8442 7.57056 54.1776 7.81101 54.5576 7.88858Z" fill="#222222"/>
<path d="M61.6688 5.72446C61.948 6.24416 61.979 6.86469 61.7696 7.58607C61.5525 8.3152 61.1881 8.81163 60.6685 9.09863C60.149 9.37787 59.6062 9.43992 59.0324 9.26927C58.4354 9.09087 58.0011 8.75733 57.7375 8.27641C57.4583 7.75672 57.4273 7.12067 57.6444 6.37602C57.8615 5.65465 58.226 5.15046 58.7455 4.86346C59.265 4.58422 59.8078 4.52992 60.3816 4.69281C60.9554 4.86346 61.3819 5.20476 61.6688 5.72446ZM59.2573 5.04962C58.8696 5.25905 58.5517 5.76324 58.319 6.56218C58.0864 7.36112 58.0709 7.95839 58.2803 8.34623C58.4741 8.70303 58.7455 8.93573 59.0945 9.03657C59.4434 9.13741 59.7923 9.09863 60.149 8.90471C60.5367 8.69528 60.8546 8.19109 61.0873 7.38439C61.3199 6.58545 61.3354 5.98818 61.126 5.60035C60.9322 5.24354 60.6608 5.01084 60.3118 4.91C59.9629 4.80916 59.614 4.85571 59.2573 5.04962Z" fill="#222222"/>
<path d="M60.5904 10.743C60.4664 10.7818 60.4276 10.7353 60.4741 10.6112L61.3271 9.72691C61.5209 9.80448 61.7458 9.76569 62.0017 9.61056C62.622 9.23824 63.3276 8.37724 64.103 7.03533C64.2814 6.74058 64.1651 6.51563 63.7851 6.3605C63.7153 6.2519 63.7464 6.17434 63.8704 6.14331L66.817 7.29906C66.91 7.41541 66.879 7.49298 66.7317 7.51625C66.3905 7.38438 66.1579 7.48522 66.0261 7.82652L64.925 10.6267C64.8087 10.9137 64.925 11.1309 65.2662 11.2627L65.522 11.3636L65.2507 12.4728C65.1809 12.5814 65.1188 12.5891 65.0801 12.4883C65.0258 12.1858 64.9638 11.9531 64.894 11.7824C64.7466 11.4411 64.5295 11.2162 64.2349 11.1076L62.5212 10.4328C61.9086 10.2078 61.265 10.3087 60.5904 10.743ZM64.6691 6.88795C64.5373 6.95001 64.3822 7.12841 64.2116 7.42317C63.5525 8.54013 62.8391 9.36234 62.0637 9.89756C62.0327 9.96737 62.0715 10.0294 62.1645 10.0604L63.7308 10.6732C64.0255 10.7896 64.2349 10.6732 64.3667 10.3319L65.522 7.38438C65.5996 7.19047 65.5143 7.04309 65.2739 6.95001C65.0025 6.84917 64.8009 6.8259 64.6691 6.88795Z" fill="#222222"/>
<path d="M68.0343 13.0235C67.3209 13.6673 66.6153 13.8147 65.9097 13.4812C65.3669 13.2252 65.1808 12.9304 65.3359 12.5969C65.3824 12.5038 65.4522 12.434 65.5608 12.403C65.6693 12.3642 65.7779 12.3719 65.8942 12.434C66.0338 12.5038 66.1268 12.6357 66.1811 12.8296C66.2664 13.0157 66.3904 13.1476 66.5533 13.2252C66.9487 13.4191 67.3985 13.2717 67.887 12.783L67.9955 8.75731C68.0266 8.39275 67.9103 8.13678 67.6621 7.9894C67.6001 7.87305 67.6389 7.80324 67.7629 7.77997L69.2129 8.47032C69.275 8.58667 69.244 8.65648 69.1121 8.67975C68.833 8.60218 68.6624 8.71077 68.6081 9.00553L68.4685 11.9298C68.4918 12.0539 68.5693 12.0927 68.6779 12.0306L70.7095 10.138C70.9576 9.85101 70.9421 9.61831 70.663 9.42439C70.6009 9.30804 70.6319 9.23823 70.7638 9.21496L71.8881 9.75793C71.9501 9.87428 71.9191 9.94409 71.7873 9.96736C71.5392 9.87428 71.2523 9.99839 70.9188 10.3319L68.0343 13.0235Z" fill="#222222"/>
<path d="M75.6027 12.6978C75.5174 12.5892 75.4244 12.5349 75.3314 12.5349C75.1763 12.5349 75.0289 12.5814 74.8816 12.6745C74.68 12.7986 74.5172 12.8994 74.3853 12.9692C74.2148 13.0468 74.0519 13.1166 73.8968 13.1787C73.7573 13.1554 73.7185 13.1942 73.7805 13.295L73.9356 15.3971C73.9976 15.8004 74.114 16.0564 74.3001 16.165C74.3698 16.2969 74.3311 16.3667 74.176 16.3667L72.7027 15.4824C72.6329 15.3505 72.6717 15.2807 72.819 15.2807C73.0594 15.3971 73.2145 15.3816 73.2998 15.2497C73.3385 15.1799 73.354 15.0868 73.3385 14.955L73.2222 13.3338C73.23 13.2175 73.1757 13.1244 73.0671 13.0623L72.4313 12.6822L71.6636 13.9543C71.4775 14.2646 71.5396 14.5128 71.8498 14.7067C71.9195 14.8386 71.8808 14.9084 71.7257 14.9084L70.2524 14.0242C70.1826 13.8923 70.2214 13.8225 70.3687 13.8225C70.6789 14.0086 70.9348 13.9466 71.1209 13.6363L72.6329 11.1231C72.819 10.8129 72.757 10.5647 72.4468 10.3707C72.377 10.2389 72.4158 10.1691 72.5709 10.1691L74.0442 11.0533C74.114 11.1852 74.0752 11.255 73.9201 11.255C73.6099 11.0688 73.354 11.1309 73.1679 11.4412L72.5476 12.4806L73.0129 12.7598C73.3928 12.9848 73.765 13.0313 74.1217 12.8839C74.2458 12.8374 74.5094 12.6435 74.9204 12.3177C75.091 12.1781 75.2926 12.085 75.5019 12.0307C75.7191 11.9764 75.9052 11.9997 76.0602 12.0927C76.1921 12.1703 76.2774 12.2634 76.3006 12.372C76.3316 12.4806 76.3084 12.5892 76.2386 12.6978C76.1843 12.7908 76.1068 12.8451 75.9982 12.8684C75.8896 12.8994 75.8043 12.8917 75.7346 12.8529C75.7035 12.8063 75.657 12.7598 75.6027 12.6978Z" fill="#222222"/>
<path d="M78.3867 14.6059C78.4797 14.4818 78.5185 14.3654 78.5108 14.2568C78.503 14.187 78.441 14.1095 78.3402 14.0241C78.2161 13.9311 77.9757 13.8768 77.6268 13.8612C77.3632 13.8612 77.1073 13.8923 76.8591 13.9621C76.7041 13.9466 76.673 13.8845 76.7506 13.7837L77.6811 13.2252L80.395 15.335L80.0771 16.3744C79.9996 16.4753 79.9298 16.4597 79.8755 16.3201C79.8755 16.0564 79.8522 15.8004 79.7824 15.5522C79.6816 15.2109 79.5731 14.9937 79.449 14.9006C79.3482 14.8231 79.2552 14.7843 79.1854 14.792C79.0768 14.8076 78.976 14.8774 78.8752 14.9937L76.9987 17.3983C76.7738 17.6853 76.8049 17.9413 77.0995 18.1662C77.1538 18.3058 77.1073 18.3679 76.9599 18.3524L75.603 17.2975C75.5487 17.1578 75.5952 17.0958 75.7425 17.1113C76.0295 17.3362 76.2853 17.3052 76.5102 17.0105L78.3867 14.6059Z" fill="#222222"/>
<path d="M48.3392 61.5572C48.3392 61.1306 47.998 60.7816 47.5638 60.7816C47.1373 60.7816 46.7884 61.1306 46.7884 61.5572C46.7884 61.883 46.99 62.1623 47.2691 62.2709C45.7959 62.8604 43.4696 61.4099 43.4696 61.4099C40.9108 59.5327 38.3519 59.269 38.3519 59.269C34.3896 58.7028 33.4436 59.7189 33.4436 59.7189C33.4358 59.7267 33.4358 59.7344 33.4281 59.7499C33.2962 59.8896 33.2109 60.0757 33.2109 60.2851C33.2109 60.7118 33.5599 61.0608 33.9863 61.0608C34.4128 61.0608 34.7618 60.7118 34.7618 60.2851C34.7618 60.0137 34.6222 59.7732 34.4051 59.6336C34.6377 59.3776 35.1572 59.3466 35.1572 59.3466C37.3206 59.3078 40.9495 61.2935 40.9495 61.2935C45.0902 63.5973 47.9515 62.2476 47.9515 62.2476H47.9205C48.1686 62.108 48.3392 61.852 48.3392 61.5572Z" fill="#222222"/>
<path d="M35.9717 59.6879C35.9717 59.6879 36.7781 59.7189 39.7479 61.1772C39.7479 61.1772 43.3769 63.2327 45.7031 62.8138C45.7031 62.8138 43.0512 63.6748 39.6937 61.6813C39.6937 61.6813 37.4295 60.2231 35.9717 59.6879Z" fill="#222222"/>
<path d="M29.435 48.6656C29.435 49.0302 29.3885 49.6274 29.7607 49.7826V49.8059H28.3262V49.7826C28.7061 49.6274 28.6596 49.0302 28.6596 48.6656V45.5862C28.6596 45.2216 28.7139 44.6244 28.3262 44.4692V44.446H29.7607V44.4692C29.3885 44.6244 29.435 45.2216 29.435 45.5939V46.6023H32.149V45.5939C32.149 45.2216 32.2032 44.6244 31.8155 44.4692V44.446H33.25V44.4692C32.8701 44.6244 32.9089 45.2216 32.9089 45.5862V48.6656C32.9089 49.0302 32.8623 49.6274 33.25 49.7826V49.8059H31.8155V49.7826C32.2032 49.6274 32.149 49.0302 32.149 48.6656V47.1918H29.435V48.6656Z" fill="#222222"/>
<path d="M36.0177 49.3715C36.4752 49.3715 36.9094 49.2318 37.2506 48.9371H37.2739L36.9017 49.705C36.576 49.8524 36.2193 49.9067 35.8626 49.9067C34.5832 49.9067 33.6992 49.0379 33.6992 47.9054C33.6992 46.773 34.4591 45.9507 35.5835 45.9507C36.607 45.9507 37.3049 46.7497 37.2739 47.7968H34.5134C34.5289 48.7975 35.1647 49.3715 36.0177 49.3715ZM35.5137 46.486C35.0097 46.486 34.6297 46.8117 34.5444 47.3237H36.4829C36.4054 46.7574 36.0565 46.486 35.5137 46.486Z" fill="#222222"/>
<path d="M39.7936 49.0612V47.7813C39.5765 47.9054 39.3206 47.9675 39.0725 48.0295C38.7158 48.1226 38.3048 48.208 38.3048 48.7044C38.3048 49.2086 38.7235 49.3715 39.1268 49.3715C39.3051 49.3715 39.4835 49.3172 39.6695 49.2551L39.2276 49.8679C39.0957 49.8912 38.9639 49.9067 38.8321 49.9067C38.0722 49.9067 37.5449 49.387 37.5449 48.7044C37.5449 47.1918 39.7936 47.8899 39.7936 47.0057C39.7936 46.6178 39.3516 46.486 39.0725 46.486C38.6848 46.486 38.3901 46.6411 38.0489 46.8117L38.553 45.9973L39.0415 45.9507C39.8556 45.9507 40.4682 46.199 40.4837 47.1918V48.4096C40.4837 49.0534 40.4992 49.3016 41.1273 49.3715L40.7939 49.9067C40.2899 49.8756 39.7936 49.7128 39.7936 49.0612Z" fill="#222222"/>
<path d="M42.2293 44.3141H42.2525V48.8983C42.2525 49.2706 42.1982 49.5731 42.5317 49.7826V49.8058H41.291V49.7826C41.6167 49.5731 41.5702 49.2784 41.5702 48.8983V45.3457C41.5702 44.9734 41.6167 44.6709 41.291 44.4615V44.4459H41.7485C41.9191 44.4459 42.113 44.4537 42.2293 44.3141Z" fill="#222222"/>
<path d="M44.8967 49.3715C44.9975 49.3715 45.0983 49.3327 45.1991 49.2861L44.7959 49.8679C44.7184 49.8912 44.6408 49.9067 44.5555 49.9067C43.3847 49.9067 43.4932 48.6036 43.4932 48.2855V46.5946H42.9814V46.2998C43.6871 46.1679 43.8809 45.6017 43.8809 44.8416H44.1833V46.0516H44.889C44.9898 46.0516 45.0983 46.0516 45.1759 46.0051H45.1991V46.7497H45.1759C45.0595 46.5791 44.8269 46.5946 44.6331 46.5946H44.1833V48.2235C44.1833 48.5337 44.0903 49.3715 44.8967 49.3715Z" fill="#222222"/>
<path d="M46.4235 44.3141H46.4468V46.4627C46.6717 46.1136 47.1834 45.9508 47.5556 45.9508C48.5947 45.9508 48.8428 46.6256 48.8428 47.4168V48.8983C48.8428 49.2706 48.7963 49.5731 49.1297 49.7826V49.8058H47.8813V49.7826C48.2147 49.5731 48.1605 49.2784 48.1605 48.8983V47.665C48.1605 47.0057 47.9666 46.4937 47.3153 46.4937C46.6484 46.4937 46.4468 46.8893 46.4468 47.6184V48.9061C46.4468 49.2784 46.4003 49.5809 46.7337 49.7903V49.8136H45.4775V49.7903C45.811 49.5809 45.7644 49.2861 45.7644 48.9061V45.3535C45.7644 44.9812 45.811 44.6787 45.4775 44.4692V44.4459H45.966C46.1366 44.4459 46.3227 44.446 46.4235 44.3141Z" fill="#222222"/>
<path d="M52.0298 46.0826V46.0593H53.0843L51.518 50.1006C51.1071 51.1555 50.5798 51.458 49.8741 51.458C49.5485 51.458 49.2693 51.3727 48.9824 51.2563L49.657 50.7289C49.7811 50.8219 49.9207 50.9228 50.0758 50.9228C50.603 50.9228 50.8279 50.31 50.9907 49.8601L51.0373 49.7282L51.0062 49.6895C50.7581 49.418 50.7581 49.3792 50.6185 49.0379L49.7036 46.8738C49.5485 46.517 49.4632 46.23 49.0987 46.0826V46.0593H49.7423C50.0215 46.0593 50.1611 46.1834 50.2463 46.3851L51.3552 49.0844L52.1151 47.0134C52.2236 46.6954 52.3942 46.261 52.0298 46.0826Z" fill="#222222"/>
<path d="M33.8779 55.8406V55.8638H32.4512V55.8406C32.8389 55.6932 32.7924 55.0882 32.7924 54.7236V51.6519C32.7924 51.2796 32.8389 50.6823 32.4512 50.5272V50.5039H34.8627C34.9945 50.5039 35.1186 50.5194 35.2194 50.4651H35.2427V51.4115H35.2194C34.9868 51.1245 34.6766 51.0934 34.3277 51.0934C34.064 51.0934 33.8004 51.1012 33.56 51.1477V52.6681H34.4672C34.5836 52.6681 34.6999 52.6681 34.7929 52.6215H34.8162V53.4825H34.7929C34.6689 53.2421 34.3587 53.2498 34.1261 53.2498H33.5678V54.7236C33.56 55.0882 33.498 55.6854 33.8779 55.8406Z" fill="#222222"/>
<path d="M37.522 52.0087C38.0106 52.0087 38.4215 52.1483 38.7782 52.4896C39.1659 52.8542 39.3985 53.3972 39.3985 53.9479C39.3985 55.1192 38.4991 55.9646 37.429 55.9646C36.3977 55.9646 35.5215 55.1735 35.5215 54.0177C35.5292 52.7999 36.4365 52.0087 37.522 52.0087ZM37.4367 52.5439C36.7389 52.5439 36.2814 53.1412 36.2814 53.8703C36.2814 54.615 36.7001 55.4217 37.4678 55.4217C38.1579 55.4217 38.6386 54.8477 38.6386 54.1108C38.6386 53.3274 38.2432 52.5439 37.4367 52.5439Z" fill="#222222"/>
<path d="M41.7408 52.0087C42.2215 52.0087 42.6403 52.1483 42.997 52.4896C43.3847 52.8542 43.6173 53.3972 43.6173 53.9479C43.6173 55.1192 42.7101 55.9646 41.6477 55.9646C40.6164 55.9646 39.7402 55.1735 39.7402 54.0177C39.748 52.7999 40.663 52.0087 41.7408 52.0087ZM41.6633 52.5439C40.9654 52.5439 40.5079 53.1412 40.5079 53.8703C40.5079 54.615 40.9189 55.4217 41.6943 55.4217C42.3844 55.4217 42.8574 54.8477 42.8574 54.1108C42.8574 53.3274 42.4697 52.5439 41.6633 52.5439Z" fill="#222222"/>
<path d="M47.587 50.3721H47.6103V54.964C47.6103 55.3364 47.5638 55.6389 47.8972 55.8328V55.8561H46.9279V54.1108C46.9279 53.785 46.9512 53.4282 46.8039 53.1257C46.6178 52.7379 46.2301 52.5362 45.8346 52.5362C45.2298 52.5362 44.7413 53.1335 44.7413 53.8703C44.7413 54.6925 45.2841 55.4217 46.075 55.4217C46.3154 55.4217 46.517 55.3208 46.7186 55.1812L46.2766 55.9181C46.1448 55.9569 46.0207 55.9569 45.8811 55.9569C44.7801 55.9569 43.9736 55.1967 43.9736 53.9867C43.9736 52.8852 44.7258 52.001 45.7571 52.001C46.1758 52.001 46.6023 52.1716 46.9124 52.4741V51.396C46.9124 51.0236 46.959 50.7289 46.6255 50.5194V50.4962H47.1373C47.3234 50.5039 47.5017 50.5039 47.587 50.3721Z" fill="#222222"/>
<path d="M42.6089 10.7741L41.7947 10.7586C41.4768 10.7508 41.1666 10.743 40.8487 10.743L40.8409 10.7508L40.2594 10.743C16.8962 10.743 6.22656 23.8053 6.22656 23.8053L20.0832 45.9585C27.7365 40.7615 39.4529 40.6452 40.3369 40.6452H40.7169C40.7169 40.6452 53.0769 40.5521 61.0326 45.9585L74.8892 23.8053C74.8815 23.8053 64.7391 11.4101 42.6089 10.7741Z" fill="white"/>
<path d="M7.40527 24.3948C7.49832 24.294 7.59137 24.2087 7.68442 24.1078C7.49832 24.294 7.40527 24.3948 7.40527 24.3948Z" fill="#ED1C24"/>
<path d="M73.207 24.1078C73.3001 24.2087 73.3931 24.294 73.4862 24.3948C73.4862 24.3948 73.3931 24.294 73.207 24.1078Z" fill="#ED1C24"/>
<path d="M73.2068 24.1079C62.3123 12.6822 45.0129 11.9841 40.4457 12.0074C35.8785 11.9841 18.5791 12.6822 7.68457 24.1079C9.47577 22.3471 19.9206 13.0545 40.4457 13.0003C60.9708 13.0545 71.4156 22.3548 73.2068 24.1079Z" fill="#ED1C24"/>
<path d="M60.5749 43.965C53.0999 37.9613 40.5848 37.8683 40.5848 37.8683H40.3212C40.3212 37.8683 27.8138 37.9691 20.3311 43.965C20.3311 43.965 27.4881 39.2955 40.453 39.2024C53.4178 39.2955 60.5749 43.965 60.5749 43.965Z" fill="#ED1C24"/>
<path d="M42.4537 14.156C41.6085 14.0939 41.0657 14.1017 41.0657 14.1017C40.8408 14.1017 40.6159 14.1017 40.3988 14.1094C40.174 14.1094 39.9568 14.1017 39.732 14.1017C39.732 14.1017 39.1892 14.0939 38.344 14.156C17.2528 14.9782 8.15723 25.1705 8.15723 25.1705L19.5092 43.1583C26.9454 37.7441 36.2814 37.0693 39.5691 37.0073C39.7165 37.0073 39.856 37.015 40.0111 37.015C40.0111 37.015 40.1507 37.0073 40.3988 37.0073C40.6469 37.0073 40.7865 37.015 40.7865 37.015C40.9339 37.015 41.0812 37.015 41.2285 37.0073C44.5163 37.0693 53.8522 37.7441 61.2884 43.1583L72.6404 25.1705C72.6404 25.1705 63.5448 14.9782 42.4537 14.156ZM24.3168 37.9303L13.9418 26.2642C13.9418 26.2642 13.2207 25.3955 12.2902 25.5273L12.2281 25.442C12.2281 25.442 14.7482 23.5338 17.183 22.3005L17.2295 22.3936C17.2295 22.3936 16.2525 22.9443 16.8806 23.7743L23.0451 31.2595C23.0451 31.2595 22.6497 27.0554 21.7502 24.0303C21.7502 24.0303 20.9205 20.9354 19.6411 21.2689L19.5868 21.1836C19.5868 21.1836 21.6804 20.2915 23.4716 19.7331L23.4949 19.8417C23.4949 19.8417 22.6729 20.1674 22.8823 22.2075L24.5339 37.8217L24.3168 37.9303ZM28.5505 36.2936L28.5195 36.1695C28.5195 36.1695 29.5973 35.6731 29.2562 33.7107L26.8369 20.6639C26.8369 20.6639 26.5035 19.1125 25.4101 19.2754L25.3791 19.1823C25.3791 19.1823 28.2636 18.3834 31.1482 17.949L31.1559 18.0266C31.1559 18.0266 30.0083 18.2127 30.3495 20.1209L32.7223 33.0281C32.7223 33.0281 32.9549 34.6958 34.3739 34.8897L34.4049 35.006C34.4126 34.9983 32.3345 35.1999 28.5505 36.2936ZM39.3985 34.7578L39.1271 34.7888L34.529 19.8184C34.529 19.8184 33.9784 17.8172 33.3813 17.7473L33.3581 17.6387C33.3581 17.6387 34.8081 17.3983 39.1504 17.2432V17.3362C39.1504 17.3362 37.8865 17.5457 38.344 19.2366L40.771 28.2577C40.771 28.2577 42.3141 23.7355 42.57 21.4008C42.57 21.4008 43.074 17.5302 41.7635 17.344L41.748 17.2354C41.748 17.2354 43.5858 17.2587 46.0128 17.4681L45.9895 17.5922C45.9895 17.5922 45.028 17.9878 44.4077 19.9115L39.3985 34.7578ZM50.6343 35.8438C50.6343 35.8438 47.8815 35.0991 44.7721 34.7888L44.7799 34.6337C44.7799 34.6337 46.0206 34.4553 46.323 32.966L48.8198 19.9502C48.8198 19.9502 49.1067 18.4222 48.0366 17.8016L48.0521 17.7163C48.0521 17.7163 50.8746 18.0654 53.8367 18.7557L53.8057 18.8721C53.8057 18.8721 52.596 18.8255 52.2704 20.5863L49.7735 33.6331C49.7735 33.6331 49.4401 35.006 50.6575 35.7274L50.6343 35.8438ZM65.1577 31.3681C63.8938 35.8438 60.9317 37.7209 60.9317 37.7209C58.8614 39.0318 57.2795 38.2251 57.2795 38.2251C56.6514 37.9303 56.2327 37.7441 56.2327 37.7441C52.8674 36.3324 51.022 35.9679 51.022 35.9679L51.0762 35.8282C52.3557 35.7739 52.8597 34.3312 52.8597 34.3312L57.5897 21.6878C58.0007 20.3458 57.0857 19.7408 57.0857 19.7408L57.1167 19.6322C59.8229 20.3846 63.0408 21.9903 63.0408 21.9903C64.8475 22.828 65.5144 25.2015 65.5144 25.2015C66.2433 27.8388 65.1577 31.3681 65.1577 31.3681Z" fill="#EF3E42"/>
<path d="M61.9088 22.4324L61.2342 22.1764L55.7676 36.3945L56.4577 36.7435C56.4577 36.7435 58.0008 37.7054 60.1719 33.7184C60.1719 33.7184 61.746 30.8639 62.692 26.8925C62.692 26.8925 63.0875 25.4575 62.8936 24.0691C62.9091 24.0768 62.6998 22.797 61.9088 22.4324Z" fill="#EF3E42"/>
</svg>
