<svg width="40" height="40" viewBox="0 0 40 40" fill="none" xmlns="http://www.w3.org/2000/svg">
<path d="M24.4539 16.2842L18.4436 21.9609L15.5594 18.9933C15.2343 18.6599 14.7091 18.6599 14.384 18.9767C14.0506 19.3018 14.0506 19.8269 14.3674 20.152L17.8268 23.7031C17.9935 23.8699 18.2102 23.9532 18.427 23.9532C18.6354 23.9532 18.8354 23.8782 19.0021 23.7281L25.6125 17.4929C25.946 17.1761 25.9627 16.6509 25.6459 16.3175C25.3208 15.9841 24.7956 15.9674 24.4539 16.2842Z" fill="#222222"/>
<path d="M19.9939 7.5481C13.1251 7.5481 7.54004 13.1332 7.54004 20.002C7.54004 26.8708 13.1251 32.4559 19.9939 32.4559C26.8627 32.4559 32.4478 26.8708 32.4478 20.002C32.4478 13.1332 26.8627 7.5481 19.9939 7.5481ZM19.9939 30.7887C14.0421 30.7887 9.20723 25.9455 9.20723 20.002C9.20723 14.0585 14.0421 9.21528 19.9939 9.21528C25.9458 9.21528 30.7806 14.0501 30.7806 20.002C30.7806 25.9538 25.9458 30.7887 19.9939 30.7887Z" fill="#222222"/>
<path d="M37.1324 15.4173L37.4075 10.4741C37.4242 10.1407 37.2491 9.83224 36.949 9.68219L32.5477 7.4565L30.322 3.05512C30.1719 2.76336 29.8635 2.57997 29.5301 2.59664L24.5785 2.86339L20.4522 0.137543C20.1771 -0.0458477 19.8104 -0.0458477 19.5353 0.137543L15.409 2.86339L10.4658 2.58831C10.1323 2.57164 9.8239 2.74669 9.67386 3.04679L7.44816 7.44816L3.04679 9.67386C2.75503 9.8239 2.57164 10.1323 2.58831 10.4658L2.86339 15.409L0.137543 19.5353C-0.0458477 19.8104 -0.0458477 20.1771 0.137543 20.4522L2.85506 24.5869L2.57997 29.5301C2.5633 29.8635 2.73836 30.1719 3.03845 30.322L7.43983 32.5477L9.66552 36.949C9.81557 37.2408 10.124 37.4242 10.4574 37.4075L15.4006 37.1324L19.5269 39.8583C19.6686 39.95 19.827 40 19.9854 40C20.1438 40 20.3022 39.95 20.4439 39.8583L24.5702 37.1324L29.5134 37.4075C29.8468 37.4242 30.1553 37.2491 30.3053 36.949L32.531 32.5477L36.9324 30.322C37.2241 30.1719 37.4075 29.8635 37.3909 29.5301L37.1158 24.5869L39.8416 20.4606C40.025 20.1855 40.025 19.8187 39.8416 19.5436L37.1324 15.4173ZM35.582 23.9033C35.4819 24.0534 35.4319 24.2284 35.4486 24.4118L35.707 29.0883L31.5474 31.1889C31.389 31.2723 31.2556 31.3973 31.1806 31.5557L29.0799 35.7153L24.4035 35.4569C24.2284 35.4486 24.045 35.4986 23.895 35.5903L19.9937 38.1661L16.0925 35.5903C15.9592 35.4986 15.7924 35.4486 15.6341 35.4486C15.6174 35.4486 15.6007 35.4486 15.5924 35.4486L10.9159 35.707L8.81526 31.5474C8.7319 31.389 8.60686 31.2556 8.44847 31.1806L4.2805 29.0883L4.53892 24.4118C4.54725 24.2367 4.49724 24.0534 4.40554 23.9033L1.82974 20.0021L4.40554 16.1009C4.50557 15.9508 4.55559 15.7758 4.53892 15.5924L4.2805 10.9159L8.44014 8.81526C8.59852 8.7319 8.7319 8.60686 8.80692 8.44847L10.9076 4.28884L15.584 4.54725C15.7591 4.55559 15.9425 4.50557 16.0925 4.41388L19.9937 1.83807L23.895 4.41388C24.045 4.51391 24.2201 4.56393 24.4035 4.54725L29.0799 4.28884L31.1806 8.44847C31.2639 8.60686 31.389 8.74023 31.5474 8.81526L35.707 10.9159L35.4486 15.5924C35.4402 15.7674 35.4903 15.9508 35.582 16.1009L38.1578 20.0021L35.582 23.9033Z" fill="#222222"/>
</svg>
