<svg width="128" height="26" viewBox="0 0 128 26" fill="none" xmlns="http://www.w3.org/2000/svg">
<g clip-path="url(#clip0)">
<g opacity="0.2">
<path d="M117.737 16.6147C117.537 16.6147 117.4 16.7021 117.287 16.8018L116.962 17.1262C116.937 17.1511 116.912 17.1761 116.912 17.2135C116.912 17.2509 116.937 17.2758 116.962 17.3008L117.287 17.6251C117.4 17.7374 117.537 17.8122 117.737 17.8122C118.075 17.8122 118.325 17.5503 118.325 17.2135C118.325 16.8767 118.075 16.6147 117.737 16.6147ZM117.737 16.8642C117.925 16.8642 118.075 17.0139 118.075 17.2135C118.075 17.4131 117.925 17.5627 117.737 17.5627C117.625 17.5627 117.55 17.5253 117.462 17.438L117.225 17.201L117.462 16.964C117.55 16.8892 117.625 16.8642 117.737 16.8642Z" fill="#E3E3E3"/>
<path d="M115.762 16.6147C115.437 16.6147 115.175 16.8767 115.175 17.2135C115.175 17.5503 115.425 17.8122 115.762 17.8122C115.962 17.8122 116.1 17.7249 116.212 17.6251L116.537 17.3008C116.562 17.2758 116.587 17.2509 116.587 17.2135C116.587 17.1761 116.575 17.1511 116.537 17.1262L116.212 16.8018C116.1 16.6896 115.962 16.6147 115.762 16.6147ZM115.762 16.8642C115.875 16.8642 115.95 16.9016 116.037 16.989L116.275 17.226L116.037 17.4629C115.95 17.5503 115.875 17.5877 115.762 17.5877C115.575 17.5877 115.425 17.4255 115.425 17.2384C115.425 17.0139 115.575 16.8642 115.762 16.8642Z" fill="#E3E3E3"/>
<path d="M116.749 17.3757C116.712 17.3757 116.687 17.4007 116.662 17.4256L116.337 17.7499C116.224 17.8622 116.149 17.9994 116.149 18.199C116.149 18.5233 116.412 18.7852 116.749 18.7852C117.087 18.7852 117.349 18.5358 117.349 18.199C117.349 17.9994 117.262 17.8622 117.162 17.7499L116.837 17.4256C116.812 17.4007 116.787 17.3757 116.749 17.3757ZM116.749 17.6876L116.987 17.9246C117.074 18.0119 117.112 18.0867 117.112 18.199C117.112 18.3861 116.962 18.5358 116.762 18.5358C116.562 18.5358 116.412 18.3861 116.412 18.199C116.412 18.0867 116.449 18.0119 116.524 17.9246L116.749 17.6876Z" fill="#E3E3E3"/>
<path d="M116.749 15.6418C116.412 15.6418 116.149 15.8913 116.149 16.2281C116.149 16.4277 116.237 16.5649 116.337 16.6772L116.662 17.0015C116.687 17.0264 116.712 17.0514 116.749 17.0514C116.787 17.0514 116.812 17.0264 116.837 17.0015L117.162 16.6772C117.274 16.5649 117.349 16.4277 117.349 16.2281C117.349 15.8913 117.087 15.6418 116.749 15.6418ZM116.749 15.8913C116.949 15.8913 117.099 16.041 117.099 16.2281C117.099 16.3404 117.062 16.4152 116.987 16.5025L116.749 16.7395L116.512 16.5025C116.424 16.4152 116.387 16.3404 116.387 16.2281C116.399 16.041 116.549 15.8913 116.749 15.8913Z" fill="#E3E3E3"/>
</g>
<path d="M124.663 20.4567V21.0804H125.975V25.2091H126.675V21.0804H127.988V20.4567H124.663ZM122.063 23.0263H123.938V22.4275H122.063V21.0804H124.413V20.4567H121.35V25.2091H124.475V24.5855H122.05V23.0263H122.063ZM120.488 24.6478C120.338 24.6478 120.3 24.5605 120.238 24.4108C120.025 23.8246 120.038 23.5501 119.888 23.2134C119.825 23.0637 119.663 22.7893 119.325 22.677C119.563 22.5647 119.688 22.3527 119.75 22.1531C119.875 21.8038 119.913 21.28 120.05 21.1178C120.1 21.0554 120.2 20.9931 120.263 20.9931C120.288 20.9931 120.313 20.9931 120.4 21.0055L120.475 21.018V20.4442L120.425 20.4318C120.375 20.4193 120.288 20.4068 120.188 20.4068C119.963 20.4068 119.613 20.4816 119.425 20.9057C119.263 21.2675 119.238 21.8413 119.05 22.1406C118.888 22.4026 118.638 22.4525 118.375 22.4525H117.788V20.4567H117.088V25.2091H117.788V23.0263H118.363C118.675 23.0263 118.988 23.0387 119.175 23.363C119.25 23.4878 119.288 23.6749 119.375 23.9992C119.45 24.336 119.525 24.6354 119.65 24.8723C119.825 25.1842 120.075 25.284 120.313 25.284H120.325C120.463 25.284 120.55 25.259 120.65 25.2091L120.675 25.1967V24.6229L120.588 24.6478C120.575 24.6478 120.538 24.6478 120.488 24.6478ZM115.725 22.4899C115.5 22.7019 115.175 22.7019 114.963 22.7019H114.125V21.0804H115.025C115.238 21.0804 115.538 21.1053 115.738 21.28C115.838 21.3548 115.988 21.5294 115.988 21.8537C115.975 22.1406 115.863 22.3652 115.725 22.4899ZM116.213 20.7685C115.838 20.4941 115.388 20.4567 115.013 20.4567H113.413V25.2091H114.125V23.3256H115.038C115.05 23.3256 115.063 23.3256 115.075 23.3256C115.388 23.3256 115.875 23.3256 116.288 22.9514C116.438 22.8267 116.738 22.4774 116.738 21.8662C116.725 21.28 116.45 20.9432 116.213 20.7685ZM110.338 23.2757L110.95 21.3548L111.55 23.2757H110.338ZM111.388 20.4567H110.625L109.088 25.2091H109.75L110.163 23.862H111.738L112.175 25.2091H112.95L112.925 25.1218L111.388 20.4567ZM106.25 24.0616L104.9 20.4567H103.938V25.2091H104.55V21.4296L105.975 25.2091H106.45L107.85 21.4172V25.2091H108.55V20.4567H107.588L106.25 24.0616ZM102.3 22.4899C102.063 22.7019 101.738 22.7019 101.525 22.7019H100.688V21.0804H101.575C101.788 21.0804 102.1 21.1053 102.3 21.28C102.4 21.3548 102.55 21.5294 102.55 21.8537C102.55 22.1406 102.438 22.3652 102.3 22.4899ZM102.775 20.7685C102.413 20.4941 101.95 20.4567 101.575 20.4567H99.9753V25.2091H100.688V23.3256H101.6C101.613 23.3256 101.625 23.3256 101.625 23.3256C101.95 23.3256 102.425 23.3256 102.838 22.9514C102.988 22.8267 103.288 22.4774 103.288 21.8662C103.3 21.28 103.025 20.9432 102.775 20.7685ZM96.8503 23.0263H98.7128V22.4275H96.8503V21.0804H99.2003V20.4567H96.1378V25.2091H99.2628V24.5855H96.8378V23.0263H96.8503ZM91.7003 25.2091H92.4128V21.0804H94.3753V25.2091H95.0878V20.4567H91.7003V25.2091ZM89.5378 23.151L88.2628 20.4567H87.5128L89.1753 23.9493C89.1253 24.1115 89.0253 24.3485 88.8878 24.4732C88.7878 24.5605 88.6253 24.6478 88.4003 24.6478C88.3128 24.6478 88.2503 24.6354 88.1628 24.5979L88.0753 24.5605V25.1842L88.1128 25.1967C88.1878 25.2216 88.3003 25.2466 88.4378 25.2466C88.7003 25.2466 89.0003 25.1468 89.2253 24.9472C89.5378 24.6728 89.6753 24.2861 89.8003 23.9493L91.2503 20.4567H90.6003L89.5378 23.151ZM86.7628 23.5751C86.6878 23.9743 86.4753 24.2237 86.4003 24.3235C86.1878 24.5356 86.0003 24.6478 85.6753 24.6478C85.1378 24.6478 84.8253 24.311 84.6503 23.9493C84.5003 23.625 84.4378 23.1759 84.4378 22.7768C84.4378 22.4525 84.4753 21.9535 84.6878 21.5918C84.9503 21.1303 85.3003 21.0055 85.6628 21.0055C86.0378 21.0055 86.2878 21.1303 86.5003 21.4546C86.6253 21.6542 86.7003 21.8662 86.7378 22.0284L86.7503 22.0907L86.8128 22.0783L87.4253 21.966L87.4128 21.9036C87.3503 21.4546 87.1378 21.0554 86.8628 20.806C86.4753 20.4442 86.0628 20.3694 85.6753 20.3694C85.3628 20.3694 84.7253 20.4193 84.2253 21.0055C84.0753 21.1802 83.6753 21.7165 83.6878 22.7394C83.6878 23.3506 83.8378 23.9743 84.1378 24.4358C84.6128 25.1592 85.2503 25.259 85.6753 25.259H85.6878C86.0378 25.259 86.4628 25.1967 86.8628 24.7601C87.1378 24.4732 87.3253 24.0865 87.4003 23.6998L87.4128 23.6375L86.7628 23.5003V23.5751Z" fill="#004A0F"/>
<path d="M19.3873 7.34692C17.8623 7.34692 16.8373 7.9706 15.9998 8.79386L12.9873 11.8873L15.9998 14.9807C16.8373 15.804 17.8623 16.4277 19.3873 16.4277C21.8998 16.4277 23.8248 14.3945 23.8248 11.8873C23.8248 9.38012 21.9123 7.34692 19.3873 7.34692ZM19.3873 9.2928C20.7748 9.2928 21.8748 10.4404 21.8748 11.8873C21.8748 13.3467 20.7873 14.4818 19.3873 14.4818C18.5873 14.4818 18.0123 14.2323 17.3748 13.5962L15.6373 11.8748L17.3623 10.166C18.0123 9.54227 18.5873 9.2928 19.3873 9.2928Z" fill="#00490F"/>
<path d="M4.4375 7.34692C1.9125 7.34692 0 9.38012 0 11.8873C0 14.3945 1.9125 16.4277 4.425 16.4277C5.95 16.4277 6.975 15.804 7.8125 14.9807L10.825 11.8873L7.825 8.79386C6.9875 7.9706 5.95 7.34692 4.4375 7.34692ZM4.4375 9.2928C5.2375 9.2928 5.8125 9.54227 6.4625 10.1784L8.2 11.8998L6.4625 13.5962C5.8125 14.2448 5.2375 14.4818 4.4375 14.4818C3.05 14.4818 1.95 13.3467 1.95 11.8873C1.95 10.4279 3.0375 9.2928 4.4375 9.2928Z" fill="#43CC50"/>
<path d="M11.9123 12.96C11.6498 12.96 8.8123 15.9661 8.8123 15.9661C7.9873 16.8018 7.3623 17.8247 7.3623 19.3464C7.3623 21.8536 9.39981 23.7621 11.9123 23.7621C14.4248 23.7621 16.4623 21.8536 16.4623 19.3464C16.4623 17.8247 15.8373 16.8018 15.0123 15.9661L11.9123 12.96ZM11.9123 15.6044L13.6248 17.3257C14.2623 17.9868 14.5123 18.5481 14.5123 19.3464C14.5123 20.7559 13.3873 21.8287 11.9123 21.8287C10.4248 21.8287 9.31231 20.7684 9.31231 19.3464C9.31231 18.5481 9.56231 17.9743 10.1873 17.3257L11.9123 15.6044Z" fill="#00B760"/>
<path d="M11.9123 0C9.39981 0 7.3623 1.90846 7.3623 4.41565C7.3623 5.93742 7.9873 6.96026 8.8123 7.79599L11.9123 10.8021L15.0123 7.79599C15.8373 6.96026 16.4623 5.93742 16.4623 4.41565C16.4623 1.90846 14.4248 0 11.9123 0ZM11.9123 1.94588C13.3748 1.94588 14.5123 3.03108 14.5123 4.42812C14.5123 5.22643 14.2623 5.80022 13.6248 6.44884L11.9123 8.1702L10.1998 6.44884C9.56231 5.80022 9.31231 5.22643 9.31231 4.42812C9.31231 3.00613 10.4248 1.94588 11.9123 1.94588Z" fill="#9BD741"/>
<path d="M50.1123 15.6418C49.1498 15.6418 48.5498 14.8809 48.5498 13.6086V11.6378C48.5498 10.5526 49.1623 9.74178 50.1123 9.74178C51.1373 9.74178 51.7748 10.5775 51.7748 12.6606C51.7748 14.1948 51.4373 15.6418 50.1123 15.6418ZM51.4123 7.97053C51.2498 7.94558 51.0998 7.93311 50.9498 7.93311C50.0123 7.983 49.1623 8.29484 48.5373 8.66905V8.38215C48.5373 8.26989 48.5873 8.05784 48.3123 8.05784H46.7748C46.3373 8.09526 45.9998 8.4071 45.9873 8.79378V10.4154V18.3735C45.9873 19.7581 46.9748 20.6187 48.1873 20.6187H48.2873C48.4123 20.6187 48.5373 20.5689 48.5373 20.3443V16.8891C49.0623 17.201 49.7248 17.4505 50.6123 17.4629C50.9373 17.4629 51.2248 17.438 51.4998 17.3881C53.0998 17.1511 54.5498 15.7166 54.5498 12.5982C54.5623 10.0162 53.4623 8.12021 51.4123 7.97053Z" fill="#004A0F"/>
<path d="M114.938 14.8684C114.6 15.4547 114.1 15.6418 113.613 15.6418C113.125 15.6418 112.625 15.4547 112.288 14.8684C112.075 14.4942 111.875 13.8955 111.875 12.6606C111.875 11.987 111.913 11.1014 112.338 10.4403C112.638 9.9538 113.038 9.72928 113.613 9.72928C114.188 9.72928 114.575 9.9538 114.888 10.4403C115.313 11.1014 115.363 11.9745 115.363 12.6606C115.35 13.8955 115.15 14.4817 114.938 14.8684ZM113.613 7.94556C112.713 7.94556 111.5 8.15761 110.438 9.19291C110 9.61702 109.075 10.7521 109.075 12.6606C109.075 14.1325 109.65 15.4422 110.5 16.253C111.125 16.8392 112.15 17.413 113.6 17.413C115.05 17.413 116.075 16.8392 116.7 16.253C117.563 15.4297 118.138 14.12 118.138 12.6606C118.138 10.7521 117.2 9.61702 116.775 9.19291C115.725 8.15761 114.5 7.94556 113.613 7.94556Z" fill="#004A0F"/>
<path d="M97.8379 9.7293C98.3379 9.7293 98.7504 9.99125 98.9879 10.3156C99.0879 10.4528 99.1629 10.6523 99.2254 10.8769C99.3004 11.0889 99.4379 11.2386 99.6629 11.2386H101.538C101.638 11.2386 101.713 11.1513 101.7 11.0515C101.538 10.2282 101.138 9.41746 100.55 8.8811C99.8754 8.25742 98.8504 7.93311 97.8129 7.93311C96.6504 7.93311 95.6129 8.38215 94.9129 9.00583C94.2129 9.62951 93.4629 10.8145 93.4629 12.6855C93.4629 14.2447 94.0004 15.5295 94.8004 16.3029C95.2754 16.7519 96.2129 17.413 97.7629 17.413C99.1504 17.413 100.025 16.8891 100.525 16.465C101.075 15.9786 101.5 15.2551 101.7 14.4318C101.713 14.3695 101.7 14.2572 101.55 14.2572H99.6129C99.3879 14.2697 99.2879 14.3944 99.2129 14.594C99.2129 14.594 99.2004 14.6189 99.1879 14.6564C99.1879 14.6688 99.1879 14.6688 99.1754 14.6813C99.1754 14.6938 99.1629 14.7063 99.1629 14.7187C99.1129 14.831 99.0629 14.9308 98.9879 15.0306C98.6754 15.517 98.3504 15.6293 97.8879 15.6293C97.4504 15.6293 97.0254 15.517 96.6629 14.9058C96.4129 14.4817 96.2754 13.8581 96.2754 12.6731C96.2754 11.2636 96.4879 10.7147 96.6504 10.4403C96.8879 10.0162 97.3379 9.7293 97.8379 9.7293Z" fill="#004A0F"/>
<path d="M38.8371 11.7001C38.8371 11.1513 39.0371 10.6274 39.3371 10.3031C39.6621 9.96628 40.1496 9.72928 40.6996 9.72928C41.3996 9.72928 41.8121 10.0661 42.0621 10.4153C42.3121 10.7771 42.4371 11.276 42.4246 11.7001H38.8371ZM40.6621 7.94556C39.8496 7.94556 38.7121 8.07029 37.6496 8.96839C36.9371 9.5796 36.0371 10.7022 36.0371 12.7105C36.0371 14.4318 36.7121 15.5295 37.3496 16.1656C38.0246 16.8392 39.1371 17.438 40.6496 17.438C41.8746 17.438 42.8621 17.1136 43.5746 16.6147C44.0746 16.2654 44.6871 15.6667 45.0121 14.6938C45.0371 14.6189 45.0746 14.4568 44.8746 14.4568H42.7246C42.5996 14.4568 42.4621 14.6064 42.4246 14.6688C42.3496 14.8434 42.2371 15.0056 42.1246 15.1303C41.8746 15.3798 41.4496 15.6542 40.7871 15.6542C39.9246 15.6542 39.4246 15.2052 39.1496 14.6938C38.9371 14.2946 38.8246 13.7458 38.8496 13.2468H44.8371C45.0746 13.2094 45.1621 13.0722 45.1746 12.7479C45.1746 12.7479 45.1746 12.7105 45.1746 12.673C45.1496 11.1887 44.6621 10.1284 44.1246 9.49228C43.4996 8.73139 42.3996 7.94556 40.6621 7.94556Z" fill="#004A0F"/>
<path d="M72.5002 14.2697C71.9252 13.0847 71.4127 12.3737 70.9252 12.3113C70.9252 12.3113 71.5752 12.2739 72.0127 11.0764C72.1627 10.6523 72.5877 9.67941 72.8752 9.08067C72.9752 8.85615 73.1502 8.61915 73.3377 8.39463C73.3627 8.36968 73.3752 8.31978 73.3752 8.28236C73.3752 8.18258 73.2877 8.09526 73.1877 8.08279H71.3127C70.8002 8.09526 70.5502 8.49442 70.3877 8.89357C70.1127 9.52972 70.0002 9.92888 69.6002 10.8145C69.4127 11.2386 69.0627 11.6877 68.3002 11.6877H67.7502V8.39463C67.7502 8.28236 67.8002 8.07031 67.5252 8.07031H65.8627C65.4252 8.10773 65.0752 8.43205 65.0752 8.81873V15.8289C65.0752 16.0285 65.0877 16.3029 65.1752 16.5648C65.3627 16.964 65.7252 17.3008 66.1877 17.3008H67.3627C67.6627 17.3008 67.7502 17.1386 67.7502 16.9141V13.2219H68.2252C69.2502 13.2219 69.7002 14.3944 70.1377 15.2177C70.5377 15.9786 71.2377 17.3257 72.4752 17.2633H73.9502C74.0502 17.2509 74.1252 17.176 74.1252 17.0762C74.1252 17.0388 74.1127 17.0139 74.1002 16.9765C73.7502 16.4151 72.9752 15.1553 72.5002 14.2697Z" fill="#004A0F"/>
<path d="M34.4123 5.51343H27.0623C26.5998 5.51343 26.1748 5.90011 26.1748 6.424C26.1748 6.424 26.1748 14.8561 26.1748 14.8936C26.1748 15.2179 26.2123 15.6046 26.3748 15.9912C26.7123 16.7147 27.4123 17.2386 28.2498 17.3384H28.5873C28.8248 17.3384 28.8623 17.2261 28.8623 16.9642V8.33246C28.8998 8.1703 29.0498 8.03309 29.2248 8.03309H32.2373C32.4123 8.03309 32.5623 8.1703 32.5998 8.33246C32.5998 8.33246 32.5873 14.7564 32.5998 14.8811C32.5998 15.2054 32.6248 15.5921 32.7873 15.9788C33.1248 16.7022 33.8248 17.2261 34.6623 17.3259H34.9998C35.2373 17.3259 35.2748 17.2136 35.2748 16.9517V6.41153C35.2873 5.98742 34.9123 5.51343 34.4123 5.51343Z" fill="#004A0F"/>
<path d="M109.987 8.25744C110.012 8.17012 110 8.05786 109.825 8.05786H101.225C101.037 8.05786 101.025 8.17012 101.05 8.25744C101.312 9.13059 101.962 9.95384 102.887 10.0037H103.825C104.025 10.0287 104.187 10.1908 104.187 10.4029V15.1179C104.187 15.4547 104.237 15.6792 104.375 15.9911C104.712 16.7145 105.412 17.2384 106.237 17.3257H106.575C106.812 17.3257 106.85 17.2135 106.85 16.9515V10.4029C106.85 10.2033 107.012 10.0287 107.212 10.0037H108.15C109.075 9.96632 109.725 9.14306 109.987 8.25744Z" fill="#004A0F"/>
<path d="M127.887 16.9889C127.537 16.4276 126.762 15.1553 126.287 14.2697C125.712 13.0847 125.2 12.3737 124.713 12.2989C124.713 12.2989 125.363 12.2614 125.8 11.064C125.95 10.6523 126.375 9.66693 126.662 9.0682C126.762 8.84367 126.938 8.60668 127.125 8.38215C127.15 8.3572 127.162 8.30731 127.162 8.26989C127.162 8.1701 127.087 8.08279 126.975 8.07031H125.1C124.587 8.08279 124.338 8.48194 124.175 8.8811C123.9 9.51725 123.787 9.9164 123.387 10.802C123.2 11.2261 122.85 11.6752 122.088 11.6752H121.55V8.39463C121.55 8.28236 121.6 8.07031 121.325 8.07031H119.662C119.225 8.10773 118.888 8.43205 118.875 8.81873V15.8289C118.875 16.0285 118.887 16.3029 118.975 16.5648C119.162 16.964 119.525 17.3008 120 17.3008H121.175C121.475 17.3008 121.562 17.1386 121.562 16.9141V13.2219H122.037C123.062 13.2219 123.512 14.3944 123.95 15.2177C124.35 15.9786 125.05 17.3257 126.287 17.2633H127.762C127.862 17.2509 127.938 17.176 127.938 17.0762C127.913 17.0388 127.9 17.0139 127.887 16.9889Z" fill="#004A0F"/>
<path d="M78.5625 15.6418C77.6 15.6418 77 14.8809 77 13.6086V11.6378C77 10.5526 77.6125 9.74178 78.5625 9.74178C79.5875 9.74178 80.225 10.5775 80.225 12.6606C80.2375 14.1948 79.9 15.6418 78.5625 15.6418ZM79.875 7.97053C79.7125 7.94558 79.5625 7.93311 79.4125 7.93311C78.4625 7.983 77.625 8.29484 76.9875 8.66905V8.38215C76.9875 8.26989 77.0375 8.05784 76.7625 8.05784H75.225C74.7875 8.09526 74.45 8.4071 74.4375 8.79378V10.4154V18.3735C74.4375 19.7581 75.425 20.6187 76.6375 20.6187H76.7375C76.8625 20.6187 77 20.5689 77 20.3443V16.8891C77.525 17.201 78.1875 17.4505 79.075 17.4629C79.3875 17.4629 79.6875 17.438 79.9625 17.3881C81.5625 17.1511 83.025 15.7166 83.025 12.5982C83.025 10.0162 81.9375 8.12021 79.875 7.97053Z" fill="#004A0F"/>
<path d="M86.5002 11.7001C86.5002 11.1513 86.7002 10.6274 87.0002 10.3031C87.3252 9.96628 87.8002 9.72928 88.3627 9.72928C89.0627 9.72928 89.4752 10.0661 89.7252 10.4153C89.9752 10.7771 90.1002 11.276 90.0877 11.7001H86.5002ZM88.3252 7.94556C87.5127 7.94556 86.3752 8.07029 85.3127 8.96839C84.6002 9.5796 83.7002 10.7022 83.7002 12.7105C83.7002 14.4318 84.3752 15.5295 85.0002 16.1656C85.6877 16.8392 86.7877 17.438 88.3002 17.438C89.5127 17.438 90.5002 17.1136 91.2252 16.6147C91.7252 16.2654 92.3252 15.6667 92.6627 14.6938C92.6877 14.6189 92.7252 14.4568 92.5252 14.4568H90.3752C90.2502 14.4568 90.1127 14.6064 90.0877 14.6688C90.0127 14.8434 89.9002 15.0056 89.7752 15.1303C89.5252 15.3798 89.1002 15.6542 88.4377 15.6542C87.5752 15.6542 87.0752 15.2052 86.8127 14.6938C86.6002 14.2946 86.4877 13.7458 86.5127 13.2468H92.5002C92.7377 13.2094 92.8252 13.0722 92.8377 12.7479V12.673C92.8127 11.1887 92.3252 10.1284 91.7752 9.49228C91.1627 8.73139 90.0627 7.94556 88.3252 7.94556Z" fill="#004A0F"/>
<path d="M61.2375 8.09521H56.95H55.5625C55.5625 9.7542 57.1875 10.3155 58.3875 10.3155H62.25H64.0625C64.0625 8.65653 62.4375 8.09521 61.2375 8.09521Z" fill="#004A0F"/>
<path d="M61.2375 11.613H56.95H55.5625C55.5625 13.272 57.1875 13.8333 58.3875 13.8333H62.25H64.0625C64.0625 12.1868 62.4375 11.613 61.2375 11.613Z" fill="#004A0F"/>
<path d="M61.2375 15.1304H56.95H55.5625C55.5625 16.7769 57.1875 17.3507 58.3875 17.3507H62.25H64.0625C64.0625 15.7042 62.4375 15.1304 61.2375 15.1304Z" fill="#004A0F"/>
</g>
<defs>
<clipPath id="clip0">
<rect width="128" height="25.284" fill="white"/>
</clipPath>
</defs>
</svg>
