<svg width="40" height="40" viewBox="0 0 40 40" fill="none" xmlns="http://www.w3.org/2000/svg">
<path d="M38.8367 19.1774L20.8228 1.16336C20.0779 0.418413 19.0676 0 18.0141 0H7.94355C3.55651 0 0 3.55639 0 7.94355V18.0141C0 19.0674 0.418534 20.0776 1.16336 20.8225L19.1774 38.8367C19.953 39.6122 20.9695 39.9999 21.986 39.9999C23.0024 39.9999 24.0189 39.6122 24.7944 38.8367L38.8367 24.7944C40.3878 23.2433 40.3878 20.7285 38.8367 19.1774ZM37.4325 23.39L23.3902 37.4323C23.0151 37.8075 22.5164 38.014 21.986 38.014C21.4554 38.014 20.9568 37.8075 20.5818 37.4323L2.56757 19.4183C2.19255 19.0433 1.98589 18.5445 1.98589 18.0141V7.94355C1.98589 4.65842 4.65854 1.98589 7.94355 1.98589H18.0141C18.5446 1.98589 19.0434 2.19243 19.4185 2.56757L37.4325 20.5816C38.2067 21.3559 38.2067 22.6159 37.4325 23.39Z" fill="#222222"/>
<path d="M26.809 25.7312C26.809 24.4866 26.4737 23.4597 25.7227 22.749C25.131 22.1958 24.3213 21.8404 23.0372 21.6627L21.3785 21.4256C20.8053 21.3467 20.3517 21.1296 20.0751 20.8724C19.7784 20.5965 19.6603 20.221 19.6603 19.8657C19.6603 18.8976 20.371 18.0879 21.8328 18.0879C22.7607 18.0879 23.8268 18.2069 24.7161 19.056L26.4536 17.3377C25.4852 16.4011 24.3737 15.9269 22.9755 15.7707V13.9011H20.2945V15.9078C18.2343 16.4271 17.0134 17.9428 17.0134 19.9646C17.0134 21.1489 17.3495 22.0575 18.0208 22.7289C18.6527 23.3416 19.5413 23.7171 20.7465 23.8948L22.4446 24.1312C23.0968 24.23 23.4127 24.3683 23.6893 24.6248C23.9852 24.9014 24.1235 25.3163 24.1235 25.81C24.1235 26.9357 23.2543 27.5484 21.635 27.5484C20.3316 27.5484 19.1272 27.2516 18.2379 26.3632L16.4609 28.1409C17.5449 29.2401 18.7853 29.7448 20.2945 29.9166V31.7741H22.9755V29.8585C25.2137 29.4434 26.809 28.0082 26.809 25.7312Z" fill="#222222"/>
<path d="M8.93684 11.9154C10.582 11.9154 11.9157 10.5818 11.9157 8.93659C11.9157 7.29143 10.582 5.95776 8.93684 5.95776C7.29168 5.95776 5.95801 7.29143 5.95801 8.93659C5.95801 10.5818 7.29168 11.9154 8.93684 11.9154Z" fill="#222222"/>
</svg>
