<svg width="29" height="29" viewBox="0 0 29 29" fill="none" xmlns="http://www.w3.org/2000/svg">
<path d="M6.93478 29C5.67391 29 4.4971 28.5026 3.40435 27.5078C2.35362 26.4698 1.51304 25.129 0.882609 23.4855C0.294203 21.8419 0 20.0902 0 18.2304C0 15.3758 0.483333 12.6943 1.45 10.1857C2.4587 7.63385 3.67754 5.49291 5.10652 3.76286C6.53551 1.98956 7.90145 0.735273 9.20435 0H9.26739L11.4739 2.07606V2.98434C10.4232 3.97912 9.43551 5.40641 8.51087 7.26622C7.58623 9.08277 7.12391 11.3318 7.12391 14.0134C7.12391 15.3975 7.31304 16.522 7.69131 17.387C8.06957 18.2521 8.63696 19.2036 9.39348 20.2416C10.0239 21.0634 10.4862 21.777 10.7804 22.3826C11.0746 22.9881 11.2217 23.7233 11.2217 24.5884C11.2217 25.8859 10.8014 26.9456 9.96087 27.7673C9.16232 28.5891 8.15362 29 6.93478 29ZM24.4609 29C23.2 29 22.0442 28.5026 20.9935 27.5078C19.9428 26.4698 19.1022 25.129 18.4717 23.4855C17.8833 21.8419 17.5891 20.0902 17.5891 18.2304C17.5891 15.3758 18.0725 12.6943 19.0391 10.1857C20.0478 7.63385 21.2667 5.47129 22.6957 3.69799C24.1246 1.92468 25.4906 0.69202 26.7935 0H26.8565L29 2.07606V2.98434C27.9493 3.97912 26.9616 5.40641 26.037 7.26622C25.1123 9.08277 24.65 11.3318 24.65 14.0134C24.65 15.3975 24.8391 16.522 25.2174 17.387C25.5957 18.2521 26.163 19.2036 26.9196 20.2416C27.55 21.0634 28.0123 21.777 28.3065 22.3826C28.6007 22.9881 28.7478 23.7233 28.7478 24.5884C28.7478 25.8859 28.3275 26.9456 27.487 27.7673C26.6884 28.5891 25.6797 29 24.4609 29Z" fill="black" fill-opacity="0.1"/>
</svg>
