<svg width="128" height="26" viewBox="0 0 128 26" fill="none" xmlns="http://www.w3.org/2000/svg">
<g clip-path="url(#clip0)">
<path d="M121.081 18.5301C119.863 19.0677 118.733 19.8203 117.443 20.1967C116.063 20.5909 114.683 20.573 113.303 20.1967C113.106 20.1429 112.891 20.0891 112.819 19.8562C112.855 19.8024 112.873 19.7307 112.909 19.7128C115.149 19.1752 116.905 17.7595 118.716 16.4692C119.916 15.6269 121.171 14.8922 122.694 14.7846C123.59 14.713 124.469 14.7667 125.383 14.9459C124.899 14.1933 124.02 14.0678 123.268 13.6736C123.339 12.6342 123.196 11.6485 122.873 10.6808C122.139 8.53032 120.078 7.34756 117.855 7.8135C117.801 7.83142 117.73 7.83142 117.676 7.84934C116.242 8.40488 114.862 8.27943 113.393 7.86726C111.385 7.2938 109.324 8.31527 108.5 10.179C107.675 12.0428 107.693 13.9244 108.464 15.824C108.894 16.8634 109.575 17.6878 110.382 18.4584C110.561 18.6376 110.848 18.7272 110.901 19.0318C110.884 19.0677 110.848 19.0856 110.812 19.1035C110.633 19.1931 110.453 19.1214 110.292 19.0677C108.554 18.5659 106.797 18.315 105.041 18.8705C101.94 14.4621 102.317 6.4336 108.643 2.0968C114.468 -1.8995 122.694 -0.0178343 126.314 6.16479C129.917 12.3116 127.515 20.3938 121.135 23.5478C114.253 26.9348 107.46 23.1357 105.543 19.4978C106.403 19.2648 107.245 19.3186 108.106 19.4619C109.217 19.6411 110.202 20.1608 111.188 20.6268C113.823 21.8633 116.421 21.8991 118.984 20.4296C119.827 19.9458 120.526 19.3186 121.081 18.5301L121.099 18.4942L121.081 18.5301ZM115.758 7.15043C118.034 7.24003 119.594 5.03579 118.966 2.70611C116.834 2.5269 115.113 4.87451 115.758 7.15043Z" fill="#B21422"/>
<path d="M75.1656 19.1931C75.1656 21.5407 75.1656 23.7091 75.1656 25.9133C74.4487 26.0029 73.8394 26.0208 73.2479 25.9312C73.0508 25.5549 73.1225 25.1965 73.1225 24.856C73.1225 20.3758 73.1225 15.9136 73.1225 11.4334C73.1225 10.9316 73.1404 10.4119 72.8357 10.0535C72.4952 9.73096 72.0651 9.87433 71.7783 9.56968C71.617 9.17542 71.7246 8.72741 71.7246 8.31523C73.3913 7.77761 74.0903 8.06434 74.9685 9.5876C75.2373 9.62344 75.3269 9.39047 75.4524 9.24711C77.2625 7.22207 81.9581 7.20415 83.5711 10.627C84.5747 12.7058 84.6285 14.8204 83.7324 16.9351C82.5675 19.6949 79.3056 20.8597 76.6173 19.7486C76.2051 19.5873 75.7929 19.426 75.1656 19.1931ZM75.0402 16.9709C75.4165 17.5802 76.008 17.7594 76.5456 18.0103C78.8397 19.0318 81.4563 17.9386 82.1373 15.6269C82.5495 14.2291 82.4241 12.8492 81.8147 11.523C81.5101 10.86 80.9903 10.3582 80.3093 10.0535C77.8898 8.9783 75.3986 10.394 75.0939 13.2613C74.9326 14.4979 75.0402 15.7702 75.0402 16.9709Z" fill="#A1C037"/>
<path d="M53.2278 2.24009C53.8551 2.15049 54.3569 2.13257 54.8946 2.24009C55.1813 3.0286 55.0379 3.69166 54.4824 4.30097C53.8013 5.05363 52.9052 5.46581 51.9912 5.84214C50.9517 6.27224 49.8943 6.70234 48.9803 7.3654C48.1021 7.99262 47.3852 8.76321 46.9551 9.78469C46.9013 9.92805 46.8655 10.0714 46.9909 10.2506C47.6361 9.9639 48.1021 9.42628 48.7114 9.08578C52.1346 7.13243 56.5255 9.30083 56.9377 13.2255C57.2065 15.6806 56.5613 17.7952 54.3927 19.211C51.561 21.0568 45.8618 20.4116 45.1449 15.1071C44.9119 13.3867 44.8582 11.6664 45.2883 9.94598C45.826 7.77758 47.2418 6.30808 49.1595 5.2866C49.8943 4.89235 50.6649 4.56978 51.4356 4.26513C52.3855 3.90671 53.192 3.44077 53.2278 2.24009ZM51.113 10.0893C48.7294 10.0893 46.9013 11.8993 46.9013 14.2649C46.9013 16.7379 48.6039 18.4762 51.1488 18.4762C53.5325 18.4583 55.1455 16.6841 55.1634 14.3545C55.1813 11.8097 53.5504 10.0893 51.113 10.0893Z" fill="#A1C037"/>
<path d="M27.2236 18.548C27.5283 18.6555 27.8509 18.6018 28.1376 18.8706C28.2631 19.229 28.1914 19.6232 28.1376 20.0175C27.582 20.3222 27.0444 20.1429 26.6142 20.1788C25.6644 19.9637 25.4314 19.229 25.2163 18.4763C24.8579 18.5122 24.6966 18.781 24.4815 18.9602C22.7968 20.3938 19.6963 20.591 17.9041 19.3186C16.1477 18.0821 15.8251 14.6055 18.2088 13.136C19.2662 12.4908 20.3953 12.2937 21.6319 12.3833C22.7431 12.4729 23.7825 12.7417 24.822 13.136C25.3239 11.3081 24.5353 10.1074 22.7789 9.76688C21.2376 9.48015 19.768 9.64144 18.3163 10.1791C18.1729 10.2328 18.0295 10.2687 17.9041 10.3045C17.8862 10.3045 17.8503 10.2866 17.7607 10.2507C17.5636 9.85649 17.4919 9.40847 17.456 8.90669C17.9041 8.53036 18.4238 8.31531 18.9794 8.18987C20.3236 7.90314 21.6857 7.79561 23.0657 7.97482C24.7862 8.20779 26.3275 9.15758 26.7039 10.6808C26.8114 11.093 26.8293 11.5052 26.8293 11.9174C26.8293 13.6557 26.8472 15.3761 26.8293 17.1144C26.7935 17.652 26.8293 18.1179 27.2236 18.548ZM24.9296 14.8743C23.7646 14.1754 22.4384 13.9424 21.0584 13.9962C20.4311 14.0141 19.8755 14.2112 19.3916 14.5338C18.6747 15.0176 18.3163 15.7345 18.4597 16.6126C18.5851 17.4369 19.0511 18.0641 19.8755 18.2971C21.2734 18.7093 22.6176 18.4584 23.8005 17.6878C24.7145 17.0606 25.3059 16.1825 24.9296 14.8743Z" fill="#A1C037"/>
<path d="M70.1278 14.4622C67.099 14.4622 64.1777 14.4622 61.2205 14.4622C60.8979 15.4657 61.2205 16.2542 61.812 16.9711C62.959 18.3151 64.5003 18.6377 66.185 18.5123C67.2603 18.4406 68.2998 18.1897 69.3034 17.7237C69.8232 18.1718 69.7335 18.7452 69.6977 19.3545C67.0811 20.4477 64.4644 20.7703 61.8657 19.4083C60.3065 18.5839 59.3925 17.1861 59.1057 15.4299C58.7294 13.1719 59.0878 11.0752 60.8442 9.4444C62.027 8.33331 63.4966 7.90322 65.1096 7.9749C65.7728 8.01074 66.418 8.04658 67.0632 8.20787C68.5686 8.60212 69.5902 9.55192 70.0561 11.0214C70.3967 12.0967 70.4325 13.2257 70.1278 14.4622ZM61.0234 12.7956C63.6042 12.7956 66.0595 12.8135 68.4969 12.7956C68.479 11.2365 67.8517 10.2687 66.5972 9.82073C65.5577 9.4444 64.5003 9.40855 63.4429 9.78489C62.0987 10.2687 61.3281 11.2185 61.0234 12.7956Z" fill="#A1C037"/>
<path d="M87.0665 8.26152C87.6759 8.17192 88.1956 8.20776 88.805 8.2436C88.805 10.8421 88.805 13.4047 88.805 16.1287C89.4681 15.6269 89.952 15.1251 90.4 14.6054C91.7263 13.1001 93.1959 11.7381 94.5759 10.2866C95.0598 9.76686 95.5437 9.24716 96.0276 8.70954C96.3144 8.40488 96.5832 8.06439 97.1029 8.26152C97.3718 8.51241 97.318 8.8529 97.318 9.17547C97.318 12.455 97.318 15.7524 97.318 19.0318C97.318 19.3544 97.3718 19.6949 97.0671 20.0175C96.5832 20.0892 96.0635 20.0533 95.4183 19.9816C95.257 17.4548 95.4541 14.9459 95.3824 12.2578C94.6834 12.5983 94.2712 13.0643 93.8769 13.4944C92.2639 15.2864 90.4897 16.9172 88.8946 18.7272C88.4465 19.2469 87.9805 19.8024 87.3174 20.0175C86.9948 19.9099 86.959 19.6949 86.959 19.4799C86.959 15.8599 86.959 12.2578 86.9769 8.63785C86.959 8.54825 87.0127 8.44073 87.0665 8.26152Z" fill="#A1C037"/>
<path d="M13.5132 16.2182C14.0509 16.4333 14.3376 16.8275 14.6244 17.1859C13.6207 19.0855 10.1797 20.3579 7.4555 20.107C3.35133 19.7307 0.591315 16.5766 0.107417 13.1717C-0.484014 8.94242 1.3082 5.53749 4.83887 3.90671C7.95732 2.47306 12.0436 3.01068 14.4989 5.73462C14.3197 6.2364 13.9254 6.59481 13.5132 6.95323C13.0114 6.77402 12.6888 6.36184 12.2766 6.09303C10.0363 4.62354 7.68849 4.31889 5.25107 5.59126C3.90691 6.30808 2.95704 7.41916 2.45522 8.8349C1.50534 11.5588 1.73833 14.1394 3.70977 16.3795C5.71705 18.6554 9.12226 19.1034 11.703 17.5264C12.3124 17.1501 12.868 16.6662 13.5132 16.2182Z" fill="#A1C037"/>
<path d="M42.028 8.40472C42.028 12.1501 42.028 15.9135 42.028 19.7306C41.5082 19.9456 41.0243 19.856 40.397 19.7843C40.2895 18.5837 40.3612 17.383 40.3612 16.1644C40.3433 14.9816 40.3612 13.8168 40.2537 12.5982C38.7482 13.9243 37.6191 15.573 36.2033 17.0604C34.7874 15.6267 33.7121 13.9601 32.2245 12.4548C32.0274 14.9637 32.1529 17.3292 32.0812 19.6947C31.5256 19.9456 30.9879 19.8381 30.3965 19.8023C30.3965 15.9672 30.3965 12.1681 30.3965 8.3868C30.8983 8.17175 31.1134 8.51224 31.3284 8.78105C32.7443 10.5014 34.1601 12.2218 35.5939 13.9601C35.7552 14.1572 35.8986 14.4081 36.2212 14.5336C37.1173 13.6555 37.87 12.6519 38.6944 11.6842C39.5189 10.6986 40.3254 9.71292 41.1319 8.72729C41.3648 8.44056 41.5799 8.18967 42.028 8.40472Z" fill="#A1C037"/>
<path d="M110.902 19.0139C110.938 19.0498 110.973 19.0677 111.027 19.1035C110.956 19.229 110.884 19.211 110.83 19.0856C110.848 19.0677 110.884 19.0498 110.902 19.0139Z" fill="#C7C7C7"/>
</g>
<defs>
<clipPath id="clip0">
<rect width="128" height="25.985" fill="white"/>
</clipPath>
</defs>
</svg>
