<svg width="147" height="28" viewBox="0 0 147 28" fill="none" xmlns="http://www.w3.org/2000/svg">
<g clip-path="url(#clip0)">
<path d="M78.4814 23.304V4.69629H89.8983V9.01818H83.242V23.304H78.4814Z" fill="white"/>
<path d="M104.262 23.304V16.0163H97.19V23.304H92.4294V4.69629H97.19V11.6405H104.262V4.69629H109.023V23.304H104.262Z" fill="white"/>
<path d="M136.65 23.304V9.01818H131.089V4.69629H147V9.01818H141.413V23.304H136.65Z" fill="white"/>
<path d="M124.084 23.3015V12.6992L116.506 23.3015H112.525V4.69882H117.286V15.1907L124.737 4.69882H128.847V23.3015H124.084Z" fill="white"/>
<path d="M51.1231 23.304V12.2455L46.3699 18.0876L41.6169 12.2455V23.304H36.8563V4.69629H41.5546L46.3699 11.0945L51.1854 4.69629H55.8836V23.304H51.1231Z" fill="white"/>
<path d="M64.9218 16.7595H69.346L67.1339 10.9251L64.9218 16.7595ZM71.8273 23.3013L70.8309 20.6942H63.4296L62.4331 23.3013H57.6477L64.9692 4.69611H69.3711L76.695 23.3013H71.8273Z" fill="white"/>
<path d="M-0.00616455 8.47716C-0.00155511 6.2299 0.868222 4.07606 2.41273 2.48724C3.95723 0.898412 6.05062 0.00406368 8.23454 0H27.2595V4.30907H8.23953C7.16642 4.31378 6.13854 4.75436 5.3795 5.53494C4.62047 6.3155 4.19168 7.37293 4.18644 8.47716L4.16152 15.7111C4.07469 16.6379 3.69199 17.509 3.0732 18.1885C2.45441 18.8679 1.63439 19.3172 0.741179 19.4665L-0.00616455 19.5844V8.47716Z" fill="white"/>
<path d="M-0.00421143 28V23.6908H19.0207C20.094 23.6855 21.1219 23.2443 21.8809 22.4634C22.6398 21.6823 23.0685 20.6247 23.0738 19.5203V12.6554C23.079 11.6595 23.4282 10.6979 24.0588 9.94235C24.6895 9.18683 25.5606 8.68657 26.5165 8.53093L27.2639 8.41557V19.5203C27.2592 21.7678 26.3896 23.9219 24.8451 25.5111C23.3007 27.1003 21.2073 27.9951 19.0231 28H-0.00421143Z" fill="white"/>
<path d="M16.1128 19.5997V14.0295L13.6316 17.0774L11.1529 14.0295V19.5997H7.86707V8.63866H10.9785L13.6316 12.1633L16.2847 8.63866H19.3961V19.5997H16.1128Z" fill="white"/>
</g>
<defs>
<clipPath id="clip0">
<rect width="147" height="28" fill="white"/>
</clipPath>
</defs>
</svg>
