<svg width="36" height="27" viewBox="0 0 36 27" fill="none" xmlns="http://www.w3.org/2000/svg">
<path fill-rule="evenodd" clip-rule="evenodd" d="M26.3161 4.6999e-06C30.8981 5.51822e-06 33.2973 0.671515 34.5968 2.31776C35.9023 3.9713 36 6.50403 36 10.1791L36 16.8211C36 21.0323 35.3767 23.4648 33.9159 24.9546C32.4915 26.4074 30.2897 27 26.3162 27L9.68354 27C1.4976 27 -5.24504e-07 23.5723 -1.7996e-07 16.8211L1.59011e-07 10.1791C3.36857e-07 6.69426 4.65358e-07 4.17638 1.26221 2.46751C2.55681 0.714844 4.99669 1.61512e-05 9.68354 1.69882e-05L26.3161 4.6999e-06ZM15.5596 18.6224L23.1124 14.4157C23.496 14.2021 23.7363 13.7788 23.7358 13.3171C23.7353 12.8559 23.494 12.4331 23.1097 12.2205L15.5569 8.04091C15.197 7.84166 14.7656 7.85701 14.4187 8.08152C14.0719 8.306 13.8604 8.70699 13.8604 9.13915L13.8604 17.5255C13.8604 17.9585 14.0725 18.3598 14.42 18.5842C14.6045 18.7032 14.8128 18.7631 15.0216 18.7631C15.2061 18.7631 15.3907 18.7165 15.5596 18.6224Z" fill="#222222"/>
</svg>
